<svg width="447" height="112" viewBox="0 0 447 112" fill="none" xmlns="http://www.w3.org/2000/svg">
<path d="M19.0777 90.5837C15.2051 90.5837 11.8624 89.9534 9.04966 88.6928C6.27769 87.3916 4.11719 85.521 2.56815 83.0812C1.05987 80.6007 0.224203 77.5916 0.0611462 74.0538C0.0203821 72.3053 0 70.455 0 68.5032C0 66.5107 0.0203821 64.6198 0.0611462 62.8306C0.224203 59.3741 1.08025 56.4463 2.62929 54.0472C4.17833 51.648 6.35922 49.8181 9.17195 48.5575C11.9847 47.297 15.2866 46.6667 19.0777 46.6667C22.135 46.6667 24.8458 47.053 27.2101 47.8256C29.5744 48.5575 31.5515 49.5538 33.1413 50.8144C34.7719 52.075 35.9948 53.4575 36.8101 54.9621C37.6661 56.4667 38.1146 57.9509 38.1553 59.4148C38.1961 59.7808 38.0738 60.0858 37.7884 60.3297C37.5439 60.5737 37.2381 60.6957 36.8713 60.6957H27.9439C27.4955 60.6957 27.149 60.6347 26.9044 60.5127C26.7006 60.3501 26.5171 60.1264 26.3541 59.8418C26.0687 59.2318 25.6407 58.6015 25.07 57.9509C24.5401 57.2596 23.7859 56.67 22.8076 56.182C21.87 55.694 20.6267 55.4501 19.0777 55.4501C16.7541 55.4501 14.9197 56.06 13.5745 57.2799C12.27 58.4999 11.5567 60.4517 11.4344 63.1355C11.3121 66.6326 11.3121 70.1704 11.4344 73.7488C11.5567 76.5953 12.3108 78.6488 13.6968 79.9094C15.0828 81.17 16.9172 81.8003 19.2 81.8003C20.749 81.8003 22.1146 81.536 23.2968 81.0073C24.5197 80.4787 25.4776 79.6654 26.1706 78.5675C26.8636 77.4289 27.2101 75.9853 27.2101 74.2368V73.0779H21.4624C21.014 73.0779 20.6267 72.9355 20.3006 72.6509C20.0152 72.3256 19.8726 71.9393 19.8726 71.492V66.9783C19.8726 66.531 20.0152 66.165 20.3006 65.8804C20.6267 65.555 21.014 65.3924 21.4624 65.3924H36.8713C37.3197 65.3924 37.6865 65.555 37.9719 65.8804C38.2572 66.165 38.3999 66.531 38.3999 66.9783V73.9318C38.3999 77.4289 37.605 80.4177 36.0152 82.8982C34.4254 85.3787 32.163 87.2899 29.228 88.6318C26.3337 89.9331 22.9503 90.5837 19.0777 90.5837Z" fill="white"/>
<path d="M59.7844 90.5837C56.3602 90.5837 53.466 90.0347 51.1016 88.9368C48.7781 87.8389 46.9844 86.2733 45.7207 84.2401C44.4978 82.1663 43.8048 79.7061 43.6418 76.8596C43.601 76.0463 43.5806 75.1314 43.5806 74.1148C43.5806 73.0575 43.601 72.1426 43.6418 71.37C43.8048 68.4828 44.5386 66.0227 45.843 63.9895C47.1475 61.9563 48.9615 60.3907 51.2851 59.2928C53.6494 58.1949 56.4825 57.6459 59.7844 57.6459C63.1271 57.6459 65.9602 58.1949 68.2838 59.2928C70.6481 60.3907 72.4825 61.9563 73.7869 63.9895C75.0914 66.0227 75.8251 68.4828 75.9882 71.37C76.029 72.1426 76.0493 73.0575 76.0493 74.1148C76.0493 75.1314 76.029 76.0463 75.9882 76.8596C75.8251 79.7061 75.1118 82.1663 73.8481 84.2401C72.6251 86.2733 70.8315 87.8389 68.4672 88.9368C66.1436 90.0347 63.2494 90.5837 59.7844 90.5837ZM59.7844 83.1422C61.6188 83.1422 62.9436 82.5932 63.7589 81.4953C64.615 80.3974 65.1041 78.7505 65.2264 76.5546C65.2672 75.9447 65.2876 75.1314 65.2876 74.1148C65.2876 73.0982 65.2672 72.2849 65.2264 71.675C65.1041 69.5198 64.615 67.8932 63.7589 66.7953C62.9436 65.6567 61.6188 65.0874 59.7844 65.0874C57.9908 65.0874 56.666 65.6567 55.8099 66.7953C54.9539 67.8932 54.4851 69.5198 54.4035 71.675C54.3628 72.2849 54.3424 73.0982 54.3424 74.1148C54.3424 75.1314 54.3628 75.9447 54.4035 76.5546C54.4851 78.7505 54.9539 80.3974 55.8099 81.4953C56.666 82.5932 57.9908 83.1422 59.7844 83.1422Z" fill="white"/>
<path d="M84.2645 89.9737C83.816 89.9737 83.4492 89.8314 83.1638 89.5468C82.8785 89.2621 82.7358 88.8961 82.7358 88.4488V48.8015C82.7358 48.3542 82.8785 47.9882 83.1638 47.7036C83.4492 47.4189 83.816 47.2766 84.2645 47.2766H92.4581C92.9065 47.2766 93.2733 47.4189 93.5587 47.7036C93.844 47.9882 93.9867 48.3542 93.9867 48.8015V88.4488C93.9867 88.8961 93.844 89.2621 93.5587 89.5468C93.2733 89.8314 92.9065 89.9737 92.4581 89.9737H84.2645Z" fill="white"/>
<path d="M113.506 89.9737C113.057 89.9737 112.69 89.8314 112.405 89.5468C112.12 89.2621 111.977 88.8961 111.977 88.4488V56.853H101.093C100.645 56.853 100.278 56.7107 99.9924 56.426C99.7071 56.1007 99.5644 55.7347 99.5644 55.3281V48.8015C99.5644 48.3542 99.7071 47.9882 99.9924 47.7036C100.278 47.4189 100.645 47.2766 101.093 47.2766H133.99C134.438 47.2766 134.805 47.4189 135.09 47.7036C135.376 47.9882 135.518 48.3542 135.518 48.8015V55.3281C135.518 55.7347 135.376 56.1007 135.09 56.426C134.805 56.7107 134.438 56.853 133.99 56.853H123.106V88.4488C123.106 88.8961 122.963 89.2621 122.678 89.5468C122.392 89.8314 122.026 89.9737 121.577 89.9737H113.506Z" fill="white"/>
<path d="M155.078 90.5837C150.268 90.5837 146.436 89.2824 143.583 86.68C140.729 84.0775 139.241 80.2144 139.119 75.0907C139.119 74.8061 139.119 74.4401 139.119 73.9928C139.119 73.5455 139.119 73.1999 139.119 72.9559C139.241 69.7434 139.955 66.9986 141.259 64.7214C142.604 62.4036 144.439 60.655 146.762 59.4758C149.127 58.2559 151.878 57.6459 155.017 57.6459C158.604 57.6459 161.56 58.3575 163.883 59.7808C166.248 61.204 168.021 63.1356 169.203 65.5754C170.385 68.0152 170.976 70.8007 170.976 73.9318V75.3957C170.976 75.843 170.813 76.209 170.487 76.4936C170.202 76.7783 169.855 76.9206 169.448 76.9206H149.881C149.881 76.9613 149.881 77.0223 149.881 77.1036C149.881 77.1849 149.881 77.2663 149.881 77.3476C149.921 78.5268 150.125 79.6044 150.492 80.5804C150.859 81.5563 151.43 82.3289 152.204 82.8982C152.979 83.4675 153.916 83.7521 155.017 83.7521C155.832 83.7521 156.505 83.6301 157.035 83.3862C157.606 83.1015 158.074 82.7966 158.441 82.4712C158.808 82.1053 159.093 81.8003 159.297 81.5563C159.664 81.1497 159.949 80.9057 160.153 80.8243C160.398 80.7024 160.765 80.6414 161.254 80.6414H168.836C169.244 80.6414 169.57 80.7634 169.814 81.0073C170.1 81.2107 170.222 81.5156 170.181 81.9223C170.141 82.6136 169.794 83.4472 169.142 84.4231C168.49 85.399 167.532 86.375 166.268 87.3509C165.045 88.2862 163.496 89.0588 161.621 89.6687C159.746 90.2787 157.565 90.5837 155.078 90.5837ZM149.881 70.882H160.214V70.76C160.214 69.4588 160.011 68.3202 159.603 67.3443C159.236 66.3683 158.645 65.616 157.83 65.0874C157.055 64.5588 156.118 64.2945 155.017 64.2945C153.916 64.2945 152.979 64.5588 152.204 65.0874C151.47 65.616 150.9 66.3683 150.492 67.3443C150.085 68.3202 149.881 69.4588 149.881 70.76V70.882Z" fill="#15FF10"/>
<path d="M191.384 90.5837C186.574 90.5837 182.742 89.2824 179.888 86.68C177.035 84.0775 175.547 80.2144 175.425 75.0907C175.425 74.8061 175.425 74.4401 175.425 73.9928C175.425 73.5455 175.425 73.1999 175.425 72.9559C175.547 69.7434 176.26 66.9986 177.565 64.7214C178.91 62.4036 180.744 60.655 183.068 59.4758C185.432 58.2559 188.184 57.6459 191.323 57.6459C194.91 57.6459 197.865 58.3575 200.189 59.7808C202.553 61.204 204.326 63.1356 205.509 65.5754C206.691 68.0152 207.282 70.8007 207.282 73.9318V75.3957C207.282 75.843 207.119 76.209 206.793 76.4936C206.507 76.7783 206.161 76.9206 205.753 76.9206H186.186C186.186 76.9613 186.186 77.0223 186.186 77.1036C186.186 77.1849 186.186 77.2663 186.186 77.3476C186.227 78.5268 186.431 79.6044 186.798 80.5804C187.165 81.5563 187.735 82.3289 188.51 82.8982C189.284 83.4675 190.222 83.7521 191.323 83.7521C192.138 83.7521 192.811 83.6301 193.34 83.3862C193.911 83.1015 194.38 82.7966 194.747 82.4712C195.114 82.1053 195.399 81.8003 195.603 81.5563C195.97 81.1497 196.255 80.9057 196.459 80.8243C196.704 80.7024 197.07 80.6414 197.56 80.6414H205.142C205.549 80.6414 205.875 80.7634 206.12 81.0073C206.405 81.2107 206.528 81.5156 206.487 81.9223C206.446 82.6136 206.1 83.4472 205.447 84.4231C204.795 85.399 203.837 86.375 202.574 87.3509C201.351 88.2862 199.802 89.0588 197.926 89.6687C196.051 90.2787 193.87 90.5837 191.384 90.5837ZM186.186 70.882H196.52V70.76C196.52 69.4588 196.316 68.3202 195.909 67.3443C195.542 66.3683 194.951 65.616 194.135 65.0874C193.361 64.5588 192.423 64.2945 191.323 64.2945C190.222 64.2945 189.284 64.5588 188.51 65.0874C187.776 65.616 187.205 66.3683 186.798 67.3443C186.39 68.3202 186.186 69.4588 186.186 70.76V70.882Z" fill="#15FF10"/>
<path d="M214.543 89.9737C214.095 89.9737 213.728 89.8314 213.442 89.5468C213.157 89.2621 213.014 88.8961 213.014 88.4488V59.7808C213.014 59.3335 213.157 58.9675 213.442 58.6828C213.728 58.3982 214.095 58.2559 214.543 58.2559H221.575C222.023 58.2559 222.39 58.3982 222.675 58.6828C222.961 58.9675 223.103 59.3335 223.103 59.7808V62.0986C224.163 60.838 225.549 59.7808 227.261 58.9268C228.974 58.0729 230.991 57.6459 233.315 57.6459C235.679 57.6459 237.758 58.1745 239.552 59.2318C241.386 60.2891 242.813 61.8546 243.832 63.9285C244.892 65.9617 245.422 68.4625 245.422 71.431V88.4488C245.422 88.8961 245.259 89.2621 244.933 89.5468C244.647 89.8314 244.301 89.9737 243.893 89.9737H236.189C235.781 89.9737 235.414 89.8314 235.088 89.5468C234.803 89.2621 234.66 88.8961 234.66 88.4488V71.797C234.66 69.8858 234.191 68.4219 233.254 67.4053C232.357 66.348 231.012 65.8194 229.218 65.8194C227.547 65.8194 226.202 66.348 225.182 67.4053C224.204 68.4219 223.715 69.8858 223.715 71.797V88.4488C223.715 88.8961 223.552 89.2621 223.226 89.5468C222.94 89.8314 222.594 89.9737 222.186 89.9737H214.543Z" fill="white"/>
<path d="M265.331 90.5837C262.682 90.5837 260.419 90.299 258.544 89.7297C256.71 89.1198 255.201 88.3878 254.019 87.5339C252.878 86.68 252.022 85.8057 251.451 84.9111C250.88 83.9758 250.575 83.1829 250.534 82.5322C250.493 82.0849 250.636 81.719 250.962 81.4343C251.288 81.109 251.634 80.9463 252.001 80.9463H258.972C259.094 80.9463 259.196 80.9667 259.278 81.0073C259.359 81.048 259.482 81.1293 259.645 81.2513C260.175 81.536 260.704 81.9019 261.234 82.3492C261.764 82.7559 262.376 83.1219 263.069 83.4472C263.762 83.7725 264.597 83.9351 265.576 83.9351C266.717 83.9351 267.675 83.7115 268.45 83.2642C269.224 82.8169 269.611 82.1459 269.611 81.2513C269.611 80.6007 269.428 80.0721 269.061 79.6654C268.694 79.2181 267.94 78.7912 266.799 78.3845C265.698 77.9779 264.027 77.5712 261.785 77.1646C259.665 76.6766 257.81 76.0463 256.22 75.2737C254.631 74.4604 253.408 73.4235 252.552 72.1629C251.696 70.8617 251.268 69.2961 251.268 67.4662C251.268 65.8397 251.797 64.2741 252.857 62.7696C253.917 61.265 255.466 60.0451 257.504 59.1098C259.543 58.1339 262.05 57.6459 265.025 57.6459C267.39 57.6459 269.428 57.9306 271.14 58.4999C272.893 59.0285 274.36 59.7198 275.543 60.5737C276.766 61.4277 277.683 62.3019 278.294 63.1965C278.906 64.0911 279.232 64.9044 279.273 65.6364C279.313 66.043 279.191 66.409 278.906 66.7343C278.62 67.019 278.294 67.1613 277.927 67.1613H271.568C271.405 67.1613 271.242 67.1409 271.079 67.1003C270.916 67.019 270.773 66.9376 270.651 66.8563C270.162 66.6123 269.673 66.287 269.183 65.8804C268.694 65.4737 268.124 65.1077 267.471 64.7824C266.819 64.4571 266.004 64.2945 265.025 64.2945C263.925 64.2945 263.069 64.5385 262.457 65.0264C261.846 65.5144 261.54 66.1447 261.54 66.9173C261.54 67.4459 261.703 67.9339 262.029 68.3812C262.396 68.8285 263.11 69.2351 264.169 69.6011C265.27 69.9671 266.962 70.3737 269.245 70.821C272.057 71.2683 274.299 72.0003 275.971 73.0169C277.642 73.9928 278.824 75.1517 279.517 76.4936C280.21 77.7949 280.557 79.1775 280.557 80.6414C280.557 82.5932 279.966 84.3214 278.783 85.826C277.642 87.3306 275.93 88.5098 273.647 89.3638C271.364 90.177 268.592 90.5837 265.331 90.5837Z" fill="white"/>
<path d="M288.245 89.9737C287.796 89.9737 287.43 89.8314 287.144 89.5468C286.859 89.2621 286.716 88.8961 286.716 88.4488V48.8015C286.716 48.3542 286.859 47.9882 287.144 47.7036C287.43 47.4189 287.796 47.2766 288.245 47.2766H296.316C296.724 47.2766 297.07 47.4189 297.356 47.7036C297.682 47.9882 297.845 48.3542 297.845 48.8015V80.7634H316.311C316.759 80.7634 317.126 80.926 317.412 81.2513C317.738 81.536 317.901 81.9019 317.901 82.3492V88.4488C317.901 88.8961 317.738 89.2621 317.412 89.5468C317.126 89.8314 316.759 89.9737 316.311 89.9737H288.245Z" fill="white"/>
<path d="M332.067 90.5837C329.866 90.5837 327.889 90.177 326.136 89.3638C324.424 88.5098 323.058 87.3712 322.039 85.948C321.02 84.5248 320.511 82.9185 320.511 81.1293C320.511 78.2422 321.693 75.965 324.057 74.2978C326.421 72.5899 329.56 71.431 333.474 70.821L341.117 69.6621V68.8082C341.117 67.3443 340.811 66.226 340.2 65.4534C339.588 64.6808 338.467 64.2945 336.837 64.2945C335.695 64.2945 334.758 64.5181 334.024 64.9654C333.331 65.4127 332.781 66.0227 332.373 66.7953C332.006 67.3239 331.496 67.5882 330.844 67.5882H323.996C323.547 67.5882 323.201 67.4662 322.956 67.2223C322.712 66.9376 322.61 66.6123 322.651 66.2463C322.651 65.5144 322.916 64.6808 323.446 63.7455C324.016 62.7696 324.872 61.814 326.014 60.8787C327.155 59.9434 328.623 59.1708 330.416 58.5609C332.21 57.9509 334.37 57.6459 336.898 57.6459C339.547 57.6459 341.81 57.9509 343.685 58.5609C345.56 59.1708 347.068 60.0248 348.21 61.1227C349.392 62.2206 350.268 63.5219 350.839 65.0264C351.41 66.4903 351.695 68.1169 351.695 69.9061V88.4488C351.695 88.8961 351.532 89.2621 351.206 89.5468C350.921 89.8314 350.574 89.9737 350.167 89.9737H343.074C342.625 89.9737 342.258 89.8314 341.973 89.5468C341.688 89.2621 341.545 88.8961 341.545 88.4488V86.314C341.015 87.0866 340.302 87.7982 339.405 88.4488C338.508 89.0994 337.448 89.6077 336.225 89.9737C335.043 90.3804 333.657 90.5837 332.067 90.5837ZM334.941 83.6302C336.123 83.6302 337.183 83.3862 338.121 82.8982C339.099 82.3696 339.853 81.5766 340.383 80.5194C340.954 79.4214 341.239 78.0592 341.239 76.4326V75.5787L336.042 76.4936C334.126 76.819 332.719 77.3272 331.823 78.0185C330.967 78.6692 330.539 79.4418 330.539 80.3364C330.539 81.0277 330.742 81.6173 331.15 82.1053C331.558 82.5932 332.088 82.9795 332.74 83.2642C333.392 83.5082 334.126 83.6302 334.941 83.6302Z" fill="white"/>
<path d="M378.04 90.5837C375.757 90.5837 373.841 90.1974 372.292 89.4248C370.784 88.6521 369.54 87.6762 368.562 86.497V88.4488C368.562 88.8961 368.399 89.2621 368.073 89.5468C367.787 89.8314 367.441 89.9737 367.033 89.9737H360.124C359.675 89.9737 359.309 89.8314 359.023 89.5468C358.738 89.2621 358.595 88.8961 358.595 88.4488V48.1916C358.595 47.7443 358.738 47.3783 359.023 47.0936C359.309 46.809 359.675 46.6667 360.124 46.6667H367.584C368.032 46.6667 368.399 46.809 368.684 47.0936C368.97 47.3783 369.112 47.7443 369.112 48.1916V61.2447C370.091 60.1874 371.314 59.3335 372.781 58.6828C374.289 57.9916 376.042 57.6459 378.04 57.6459C380.078 57.6459 381.872 57.9916 383.421 58.6828C385.01 59.3335 386.356 60.2891 387.456 61.5497C388.557 62.8102 389.413 64.3148 390.024 66.0633C390.636 67.8119 390.982 69.7841 391.064 71.9799C391.105 72.7526 391.125 73.4642 391.125 74.1148C391.125 74.7248 391.105 75.4364 391.064 76.2497C390.982 78.5268 390.615 80.56 389.963 82.3492C389.352 84.0978 388.496 85.6024 387.395 86.8629C386.294 88.0829 384.97 89.0181 383.421 89.6687C381.872 90.2787 380.078 90.5837 378.04 90.5837ZM374.738 82.4102C376.124 82.4102 377.204 82.1256 377.979 81.5563C378.753 80.987 379.303 80.2144 379.629 79.2385C379.996 78.2625 380.221 77.1849 380.302 76.0057C380.384 74.7451 380.384 73.4845 380.302 72.2239C380.221 71.0447 379.996 69.9671 379.629 68.9911C379.303 68.0152 378.753 67.2426 377.979 66.6733C377.204 66.104 376.124 65.8194 374.738 65.8194C373.474 65.8194 372.435 66.104 371.619 66.6733C370.804 67.2019 370.193 67.9136 369.785 68.8082C369.377 69.6621 369.153 70.5974 369.112 71.614C369.072 72.3866 369.051 73.1389 369.051 73.8708C369.051 74.6028 369.072 75.3754 369.112 76.1887C369.153 77.2866 369.357 78.3032 369.724 79.2385C370.091 80.1737 370.682 80.9463 371.497 81.5563C372.312 82.1256 373.393 82.4102 374.738 82.4102Z" fill="white"/>
<path d="M142.886 108.551C142.086 108.4 141.499 107.7 141.499 106.888V98.8393C141.499 97.7631 142.497 96.9608 143.554 97.1762C167.52 102.058 181.026 102.004 202.256 97.2299C203.324 96.9898 204.344 97.7961 204.344 98.8879V106.916C204.344 107.716 203.777 108.409 202.992 108.571C180.697 113.195 167.048 113.097 142.886 108.551Z" fill="#15FF10"/>
<path d="M396.821 29.75C405.645 21.1493 407.422 0 407.422 0V39.6667H367.844C367.844 39.6667 388.248 38.105 396.821 29.75Z" fill="#15FF10"/>
<path d="M418.023 29.75C409.198 21.1493 407.422 0 407.422 0V39.6667H447C447 39.6667 426.596 38.105 418.023 29.75Z" fill="#15FF10"/>
<path d="M396.821 49.5833C405.645 58.184 407.422 79.3333 407.422 79.3333V39.6667H367.844C367.844 39.6667 388.248 41.2283 396.821 49.5833Z" fill="#15FF10"/>
<path d="M418.023 49.5833C409.198 58.184 407.422 79.3333 407.422 79.3333V39.6667H447C447 39.6667 426.596 41.2283 418.023 49.5833Z" fill="#15FF10"/>
<path d="M2.76103 22C2.61703 22 2.48903 21.952 2.37703 21.856C2.28103 21.744 2.23303 21.624 2.23303 21.496V10.072C2.23303 9.912 2.28103 9.784 2.37703 9.688C2.48903 9.576 2.62503 9.52 2.78503 9.52H3.93703C4.09703 9.52 4.22503 9.576 4.32103 9.688C4.41703 9.784 4.46503 9.912 4.46503 10.072V20.248L3.84103 19.6L11.113 9.88C11.193 9.784 11.281 9.704 11.377 9.64C11.473 9.56 11.593 9.52 11.737 9.52H12.841C12.969 9.52 13.081 9.568 13.177 9.664C13.289 9.76 13.345 9.872 13.345 10V21.448C13.345 21.608 13.289 21.744 13.177 21.856C13.081 21.952 12.953 22 12.793 22H11.665C11.489 22 11.353 21.952 11.257 21.856C11.161 21.744 11.113 21.608 11.113 21.448V11.872L11.785 11.848L4.46503 21.64C4.40103 21.72 4.32103 21.8 4.22503 21.88C4.12903 21.96 4.00103 22 3.84103 22H2.76103ZM7.84903 7.864C6.92103 7.864 6.19303 7.72 5.66503 7.432C5.13703 7.144 4.76903 6.776 4.56103 6.328C4.35303 5.864 4.24903 5.384 4.24903 4.888C4.24903 4.76 4.28103 4.656 4.34503 4.576C4.42503 4.48 4.54503 4.432 4.70503 4.432H5.52103C5.66503 4.432 5.77703 4.48 5.85703 4.576C5.93703 4.656 5.97703 4.76 5.97703 4.888C5.97703 5.256 6.09703 5.6 6.33703 5.92C6.59303 6.224 7.09703 6.376 7.84903 6.376C8.61703 6.376 9.12103 6.224 9.36103 5.92C9.60103 5.6 9.72103 5.256 9.72103 4.888C9.72103 4.76 9.76103 4.656 9.84103 4.576C9.92103 4.48 10.033 4.432 10.177 4.432H11.017C11.161 4.432 11.273 4.48 11.353 4.576C11.433 4.656 11.473 4.76 11.473 4.888C11.473 5.384 11.361 5.864 11.137 6.328C10.929 6.776 10.561 7.144 10.033 7.432C9.50503 7.72 8.77703 7.864 7.84903 7.864Z" fill="#BEBEBE"/>
<path d="M16.138 24.64C15.978 24.64 15.842 24.584 15.73 24.472C15.634 24.376 15.586 24.248 15.586 24.088V20.632C15.586 20.472 15.634 20.344 15.73 20.248C15.842 20.136 15.978 20.08 16.138 20.08H16.258C16.69 20.064 17.058 19.824 17.362 19.36C17.666 18.88 17.898 18.136 18.058 17.128C18.218 16.104 18.298 14.776 18.298 13.144V10.072C18.298 9.912 18.346 9.784 18.442 9.688C18.554 9.576 18.69 9.52 18.85 9.52H26.506C26.666 9.52 26.794 9.576 26.89 9.688C27.002 9.784 27.058 9.912 27.058 10.072V20.032H28.186C28.362 20.032 28.498 20.088 28.594 20.2C28.69 20.296 28.738 20.424 28.738 20.584V24.088C28.738 24.248 28.69 24.376 28.594 24.472C28.498 24.584 28.362 24.64 28.186 24.64H27.058C26.898 24.64 26.762 24.584 26.65 24.472C26.554 24.376 26.506 24.248 26.506 24.088V22H17.818V24.088C17.818 24.248 17.762 24.376 17.65 24.472C17.554 24.584 17.426 24.64 17.266 24.64H16.138ZM19.114 20.08L24.826 20.032V11.44H20.482V13.408C20.482 15.104 20.362 16.496 20.122 17.584C19.882 18.656 19.546 19.488 19.114 20.08Z" fill="#BEBEBE"/>
<path d="M31.8007 22C31.6407 22 31.5047 21.952 31.3927 21.856C31.2967 21.744 31.2487 21.608 31.2487 21.448V10.072C31.2487 9.912 31.2967 9.784 31.3927 9.688C31.5047 9.576 31.6407 9.52 31.8007 9.52H32.9527C33.1127 9.52 33.2407 9.576 33.3367 9.688C33.4327 9.784 33.4807 9.912 33.4807 10.072V21.448C33.4807 21.608 33.4327 21.744 33.3367 21.856C33.2407 21.952 33.1127 22 32.9527 22H31.8007ZM31.6087 7.192C31.4487 7.192 31.3127 7.144 31.2007 7.048C31.1047 6.936 31.0567 6.8 31.0567 6.64V5.344C31.0567 5.184 31.1047 5.056 31.2007 4.96C31.3127 4.848 31.4487 4.792 31.6087 4.792H33.1207C33.2807 4.792 33.4087 4.848 33.5047 4.96C33.6167 5.056 33.6727 5.184 33.6727 5.344V6.64C33.6727 6.8 33.6167 6.936 33.5047 7.048C33.4087 7.144 33.2807 7.192 33.1207 7.192H31.6087Z" fill="#BEBEBE"/>
<path d="M40.8772 22C40.7172 22 40.5812 21.952 40.4692 21.856C40.3732 21.744 40.3252 21.608 40.3252 21.448V11.44H36.1492C35.9892 11.44 35.8532 11.392 35.7412 11.296C35.6452 11.184 35.5972 11.048 35.5972 10.888V10.072C35.5972 9.912 35.6452 9.784 35.7412 9.688C35.8532 9.576 35.9892 9.52 36.1492 9.52H46.7092C46.8692 9.52 46.9972 9.576 47.0932 9.688C47.2052 9.784 47.2612 9.912 47.2612 10.072V10.888C47.2612 11.048 47.2052 11.184 47.0932 11.296C46.9972 11.392 46.8692 11.44 46.7092 11.44H42.5332V21.448C42.5332 21.608 42.4852 21.744 42.3892 21.856C42.2932 21.952 42.1572 22 41.9812 22H40.8772Z" fill="#BEBEBE"/>
<path d="M49.8944 22C49.7344 22 49.5984 21.952 49.4864 21.856C49.3904 21.744 49.3424 21.608 49.3424 21.448V10.072C49.3424 9.912 49.3904 9.784 49.4864 9.688C49.5984 9.576 49.7344 9.52 49.8944 9.52H51.0464C51.2064 9.52 51.3344 9.576 51.4304 9.688C51.5424 9.784 51.5984 9.912 51.5984 10.072V13.6H54.2864C55.9184 13.6 57.1104 13.984 57.8624 14.752C58.6144 15.52 58.9904 16.56 58.9904 17.872C58.9904 19.28 58.5744 20.32 57.7424 20.992C56.9104 21.664 55.6624 22 53.9984 22H49.8944ZM51.5744 20.2H54.0944C55.0544 20.2 55.7584 20.032 56.2064 19.696C56.6544 19.344 56.8784 18.736 56.8784 17.872C56.8784 17.04 56.6624 16.424 56.2304 16.024C55.7984 15.608 55.0864 15.4 54.0944 15.4H51.5744V20.2Z" fill="#BEBEBE"/>
<path d="M66.5287 24.64C66.3687 24.64 66.2327 24.584 66.1207 24.472C66.0247 24.376 65.9767 24.248 65.9767 24.088V20.632C65.9767 20.472 66.0247 20.344 66.1207 20.248C66.2327 20.136 66.3687 20.08 66.5287 20.08H66.6487C67.0807 20.064 67.4487 19.824 67.7527 19.36C68.0567 18.88 68.2887 18.136 68.4487 17.128C68.6087 16.104 68.6887 14.776 68.6887 13.144V10.072C68.6887 9.912 68.7367 9.784 68.8327 9.688C68.9447 9.576 69.0807 9.52 69.2407 9.52H76.8967C77.0567 9.52 77.1847 9.576 77.2807 9.688C77.3927 9.784 77.4487 9.912 77.4487 10.072V20.032H78.5767C78.7527 20.032 78.8887 20.088 78.9847 20.2C79.0807 20.296 79.1287 20.424 79.1287 20.584V24.088C79.1287 24.248 79.0807 24.376 78.9847 24.472C78.8887 24.584 78.7527 24.64 78.5767 24.64H77.4487C77.2887 24.64 77.1527 24.584 77.0407 24.472C76.9447 24.376 76.8967 24.248 76.8967 24.088V22H68.2087V24.088C68.2087 24.248 68.1527 24.376 68.0407 24.472C67.9447 24.584 67.8167 24.64 67.6567 24.64H66.5287ZM69.5047 20.08L75.2167 20.032V11.44H70.8727V13.408C70.8727 15.104 70.7527 16.496 70.5127 17.584C70.2727 18.656 69.9367 19.488 69.5047 20.08Z" fill="#BEBEBE"/>
<path d="M86.7513 22.24C85.5353 22.24 84.5193 22.008 83.7033 21.544C82.8873 21.08 82.2633 20.44 81.8313 19.624C81.3993 18.792 81.1593 17.848 81.1113 16.792C81.0953 16.52 81.0873 16.176 81.0873 15.76C81.0873 15.328 81.0953 14.984 81.1113 14.728C81.1593 13.656 81.3993 12.712 81.8313 11.896C82.2793 11.08 82.9113 10.44 83.7273 9.976C84.5433 9.512 85.5513 9.28 86.7513 9.28C87.9513 9.28 88.9593 9.512 89.7753 9.976C90.5913 10.44 91.2153 11.08 91.6473 11.896C92.0953 12.712 92.3433 13.656 92.3913 14.728C92.4073 14.984 92.4153 15.328 92.4153 15.76C92.4153 16.176 92.4073 16.52 92.3913 16.792C92.3433 17.848 92.1033 18.792 91.6713 19.624C91.2393 20.44 90.6153 21.08 89.7993 21.544C88.9833 22.008 87.9673 22.24 86.7513 22.24ZM86.7513 20.392C87.7433 20.392 88.5353 20.08 89.1273 19.456C89.7193 18.816 90.0393 17.888 90.0873 16.672C90.1033 16.432 90.1113 16.128 90.1113 15.76C90.1113 15.392 90.1033 15.088 90.0873 14.848C90.0393 13.632 89.7193 12.712 89.1273 12.088C88.5353 11.448 87.7433 11.128 86.7513 11.128C85.7593 11.128 84.9593 11.448 84.3513 12.088C83.7593 12.712 83.4473 13.632 83.4153 14.848C83.3993 15.088 83.3913 15.392 83.3913 15.76C83.3913 16.128 83.3993 16.432 83.4153 16.672C83.4473 17.888 83.7593 18.816 84.3513 19.456C84.9593 20.08 85.7593 20.392 86.7513 20.392Z" fill="#BEBEBE"/>
<path d="M101.831 22C101.671 22 101.543 21.952 101.447 21.856C101.351 21.76 101.303 21.632 101.303 21.472V9.976C101.303 9.848 101.351 9.744 101.447 9.664C101.559 9.568 101.671 9.52 101.783 9.52H103.007C103.263 9.52 103.463 9.648 103.607 9.904L107.687 17.536L111.791 9.904C111.935 9.648 112.135 9.52 112.391 9.52H113.591C113.719 9.52 113.831 9.568 113.927 9.664C114.023 9.744 114.071 9.848 114.071 9.976V21.472C114.071 21.632 114.023 21.76 113.927 21.856C113.831 21.952 113.711 22 113.567 22H112.391C112.231 22 112.103 21.952 112.007 21.856C111.911 21.76 111.863 21.632 111.863 21.472V11.896L112.703 11.992L108.791 19.384C108.711 19.544 108.615 19.688 108.503 19.816C108.391 19.944 108.223 20.008 107.999 20.008H107.375C107.167 20.008 107.007 19.944 106.895 19.816C106.783 19.688 106.679 19.544 106.583 19.384L102.791 12.352L103.535 12.28V21.472C103.535 21.632 103.487 21.76 103.391 21.856C103.295 21.952 103.167 22 103.007 22H101.831Z" fill="#BEBEBE"/>
<path d="M122.631 22.24C120.983 22.24 119.671 21.736 118.695 20.728C117.719 19.704 117.183 18.312 117.087 16.552C117.071 16.344 117.063 16.08 117.063 15.76C117.063 15.424 117.071 15.152 117.087 14.944C117.151 13.808 117.415 12.816 117.879 11.968C118.343 11.104 118.975 10.44 119.775 9.976C120.591 9.512 121.543 9.28 122.631 9.28C123.847 9.28 124.863 9.536 125.679 10.048C126.511 10.56 127.143 11.288 127.575 12.232C128.007 13.176 128.223 14.28 128.223 15.544V15.952C128.223 16.128 128.167 16.264 128.055 16.36C127.959 16.456 127.831 16.504 127.671 16.504H119.367C119.367 16.52 119.367 16.552 119.367 16.6C119.367 16.648 119.367 16.688 119.367 16.72C119.399 17.376 119.543 17.992 119.799 18.568C120.055 19.128 120.423 19.584 120.903 19.936C121.383 20.288 121.959 20.464 122.631 20.464C123.207 20.464 123.687 20.376 124.071 20.2C124.455 20.024 124.767 19.832 125.007 19.624C125.247 19.4 125.407 19.232 125.487 19.12C125.631 18.912 125.743 18.792 125.823 18.76C125.903 18.712 126.031 18.688 126.207 18.688H127.359C127.519 18.688 127.647 18.736 127.743 18.832C127.855 18.912 127.903 19.032 127.887 19.192C127.871 19.432 127.743 19.728 127.503 20.08C127.263 20.416 126.919 20.752 126.471 21.088C126.023 21.424 125.479 21.704 124.839 21.928C124.199 22.136 123.463 22.24 122.631 22.24ZM119.367 14.848H125.943V14.776C125.943 14.056 125.807 13.416 125.535 12.856C125.279 12.296 124.903 11.856 124.407 11.536C123.911 11.2 123.319 11.032 122.631 11.032C121.943 11.032 121.351 11.2 120.855 11.536C120.375 11.856 120.007 12.296 119.751 12.856C119.495 13.416 119.367 14.056 119.367 14.776V14.848Z" fill="#BEBEBE"/>
<path d="M134.908 22C134.748 22 134.612 21.952 134.5 21.856C134.404 21.744 134.356 21.608 134.356 21.448V11.44H130.18C130.02 11.44 129.884 11.392 129.772 11.296C129.676 11.184 129.628 11.048 129.628 10.888V10.072C129.628 9.912 129.676 9.784 129.772 9.688C129.884 9.576 130.02 9.52 130.18 9.52H140.74C140.9 9.52 141.028 9.576 141.124 9.688C141.236 9.784 141.292 9.912 141.292 10.072V10.888C141.292 11.048 141.236 11.184 141.124 11.296C141.028 11.392 140.9 11.44 140.74 11.44H136.564V21.448C136.564 21.608 136.516 21.744 136.42 21.856C136.324 21.952 136.188 22 136.012 22H134.908Z" fill="#BEBEBE"/>
<path d="M143.902 22C143.758 22 143.63 21.952 143.518 21.856C143.422 21.744 143.374 21.624 143.374 21.496V10.072C143.374 9.912 143.422 9.784 143.518 9.688C143.63 9.576 143.766 9.52 143.926 9.52H145.078C145.238 9.52 145.366 9.576 145.462 9.688C145.558 9.784 145.606 9.912 145.606 10.072V20.248L144.982 19.6L152.254 9.88C152.334 9.784 152.422 9.704 152.518 9.64C152.614 9.56 152.734 9.52 152.878 9.52H153.982C154.11 9.52 154.222 9.568 154.318 9.664C154.43 9.76 154.486 9.872 154.486 10V21.448C154.486 21.608 154.43 21.744 154.318 21.856C154.222 21.952 154.094 22 153.934 22H152.806C152.63 22 152.494 21.952 152.398 21.856C152.302 21.744 152.254 21.608 152.254 21.448V11.872L152.926 11.848L145.606 21.64C145.542 21.72 145.462 21.8 145.366 21.88C145.27 21.96 145.142 22 144.982 22H143.902Z" fill="#BEBEBE"/>
<path d="M164.457 26.56C164.297 26.56 164.161 26.504 164.049 26.392C163.953 26.296 163.905 26.168 163.905 26.008V10.072C163.905 9.912 163.953 9.784 164.049 9.688C164.161 9.576 164.297 9.52 164.457 9.52H165.561C165.721 9.52 165.849 9.576 165.945 9.688C166.057 9.784 166.113 9.912 166.113 10.072V11.128C166.497 10.6 167.009 10.16 167.649 9.808C168.289 9.456 169.089 9.28 170.049 9.28C170.945 9.28 171.705 9.432 172.329 9.736C172.969 10.04 173.489 10.456 173.889 10.984C174.305 11.512 174.617 12.112 174.825 12.784C175.033 13.456 175.145 14.176 175.161 14.944C175.177 15.2 175.185 15.472 175.185 15.76C175.185 16.048 175.177 16.32 175.161 16.576C175.145 17.328 175.033 18.048 174.825 18.736C174.617 19.408 174.305 20.008 173.889 20.536C173.489 21.048 172.969 21.464 172.329 21.784C171.705 22.088 170.945 22.24 170.049 22.24C169.121 22.24 168.337 22.072 167.697 21.736C167.073 21.384 166.561 20.952 166.161 20.44V26.008C166.161 26.168 166.113 26.296 166.017 26.392C165.921 26.504 165.785 26.56 165.609 26.56H164.457ZM169.545 20.296C170.377 20.296 171.025 20.12 171.489 19.768C171.969 19.4 172.313 18.928 172.521 18.352C172.729 17.76 172.849 17.128 172.881 16.456C172.897 15.992 172.897 15.528 172.881 15.064C172.849 14.392 172.729 13.768 172.521 13.192C172.313 12.6 171.969 12.128 171.489 11.776C171.025 11.408 170.377 11.224 169.545 11.224C168.761 11.224 168.121 11.408 167.625 11.776C167.145 12.144 166.785 12.616 166.545 13.192C166.321 13.752 166.193 14.328 166.161 14.92C166.145 15.176 166.137 15.48 166.137 15.832C166.137 16.184 166.145 16.496 166.161 16.768C166.177 17.328 166.305 17.88 166.545 18.424C166.801 18.968 167.177 19.416 167.673 19.768C168.169 20.12 168.793 20.296 169.545 20.296Z" fill="#BEBEBE"/>
<path d="M181.658 22.24C180.858 22.24 180.13 22.08 179.474 21.76C178.818 21.44 178.29 21.008 177.89 20.464C177.49 19.92 177.29 19.304 177.29 18.616C177.29 17.512 177.738 16.632 178.634 15.976C179.53 15.32 180.698 14.888 182.138 14.68L185.714 14.176V13.48C185.714 12.712 185.49 12.112 185.042 11.68C184.61 11.248 183.898 11.032 182.906 11.032C182.186 11.032 181.602 11.176 181.154 11.464C180.722 11.752 180.418 12.12 180.242 12.568C180.146 12.808 179.978 12.928 179.738 12.928H178.658C178.482 12.928 178.346 12.88 178.25 12.784C178.17 12.672 178.13 12.544 178.13 12.4C178.13 12.16 178.218 11.864 178.394 11.512C178.586 11.16 178.874 10.816 179.258 10.48C179.642 10.144 180.13 9.864 180.722 9.64C181.33 9.4 182.066 9.28 182.93 9.28C183.89 9.28 184.698 9.408 185.354 9.664C186.01 9.904 186.522 10.232 186.89 10.648C187.274 11.064 187.546 11.536 187.706 12.064C187.882 12.592 187.97 13.128 187.97 13.672V21.448C187.97 21.608 187.914 21.744 187.802 21.856C187.706 21.952 187.578 22 187.418 22H186.314C186.138 22 186.002 21.952 185.906 21.856C185.81 21.744 185.762 21.608 185.762 21.448V20.416C185.554 20.704 185.274 20.992 184.922 21.28C184.57 21.552 184.13 21.784 183.602 21.976C183.074 22.152 182.426 22.24 181.658 22.24ZM182.162 20.44C182.818 20.44 183.418 20.304 183.962 20.032C184.506 19.744 184.93 19.304 185.234 18.712C185.554 18.12 185.714 17.376 185.714 16.48V15.808L182.93 16.216C181.794 16.376 180.938 16.648 180.362 17.032C179.786 17.4 179.498 17.872 179.498 18.448C179.498 18.896 179.626 19.272 179.882 19.576C180.154 19.864 180.49 20.08 180.89 20.224C181.306 20.368 181.73 20.44 182.162 20.44Z" fill="#BEBEBE"/>
<path d="M195.765 22.24C194.821 22.24 194.021 22.128 193.365 21.904C192.725 21.664 192.205 21.368 191.805 21.016C191.421 20.648 191.141 20.272 190.965 19.888C190.789 19.488 190.693 19.12 190.677 18.784C190.677 18.64 190.725 18.528 190.821 18.448C190.917 18.352 191.029 18.304 191.157 18.304H192.285C192.429 18.304 192.549 18.344 192.645 18.424C192.741 18.488 192.813 18.608 192.861 18.784C193.053 19.392 193.421 19.816 193.965 20.056C194.509 20.296 195.173 20.416 195.957 20.416C196.469 20.416 196.941 20.352 197.373 20.224C197.805 20.08 198.141 19.856 198.381 19.552C198.637 19.248 198.765 18.872 198.765 18.424C198.765 17.768 198.573 17.272 198.189 16.936C197.821 16.6 197.245 16.432 196.461 16.432H195.141C194.981 16.432 194.853 16.384 194.757 16.288C194.661 16.192 194.613 16.064 194.613 15.904V15.256C194.613 15.112 194.661 14.992 194.757 14.896C194.853 14.784 194.981 14.728 195.141 14.728H196.317C196.973 14.728 197.477 14.6 197.829 14.344C198.181 14.088 198.357 13.68 198.357 13.12C198.357 12.784 198.277 12.464 198.117 12.16C197.957 11.856 197.685 11.608 197.301 11.416C196.933 11.208 196.421 11.104 195.765 11.104C194.837 11.104 194.181 11.264 193.797 11.584C193.429 11.888 193.165 12.344 193.005 12.952C192.941 13.128 192.861 13.248 192.765 13.312C192.685 13.376 192.565 13.408 192.405 13.408H191.325C191.181 13.408 191.061 13.368 190.965 13.288C190.869 13.208 190.821 13.096 190.821 12.952C190.837 12.472 190.941 12.016 191.133 11.584C191.341 11.152 191.645 10.76 192.045 10.408C192.461 10.056 192.973 9.784 193.581 9.592C194.205 9.384 194.933 9.28 195.765 9.28C196.965 9.28 197.909 9.464 198.597 9.832C199.301 10.2 199.797 10.656 200.085 11.2C200.389 11.728 200.541 12.256 200.541 12.784C200.541 13.408 200.437 13.928 200.229 14.344C200.037 14.76 199.653 15.112 199.077 15.4C199.797 15.672 200.293 16.08 200.565 16.624C200.837 17.168 200.981 17.8 200.997 18.52C201.013 19.352 200.789 20.04 200.325 20.584C199.877 21.128 199.261 21.544 198.477 21.832C197.693 22.104 196.789 22.24 195.765 22.24Z" fill="#BEBEBE"/>
<path d="M208.814 22.24C207.598 22.24 206.582 22.008 205.766 21.544C204.95 21.08 204.326 20.44 203.894 19.624C203.462 18.792 203.222 17.848 203.174 16.792C203.158 16.52 203.15 16.176 203.15 15.76C203.15 15.328 203.158 14.984 203.174 14.728C203.222 13.656 203.462 12.712 203.894 11.896C204.342 11.08 204.974 10.44 205.79 9.976C206.606 9.512 207.614 9.28 208.814 9.28C210.014 9.28 211.022 9.512 211.838 9.976C212.654 10.44 213.278 11.08 213.71 11.896C214.158 12.712 214.406 13.656 214.454 14.728C214.47 14.984 214.478 15.328 214.478 15.76C214.478 16.176 214.47 16.52 214.454 16.792C214.406 17.848 214.166 18.792 213.734 19.624C213.302 20.44 212.678 21.08 211.862 21.544C211.046 22.008 210.03 22.24 208.814 22.24ZM208.814 20.392C209.806 20.392 210.598 20.08 211.19 19.456C211.782 18.816 212.102 17.888 212.15 16.672C212.166 16.432 212.174 16.128 212.174 15.76C212.174 15.392 212.166 15.088 212.15 14.848C212.102 13.632 211.782 12.712 211.19 12.088C210.598 11.448 209.806 11.128 208.814 11.128C207.822 11.128 207.022 11.448 206.414 12.088C205.822 12.712 205.51 13.632 205.478 14.848C205.462 15.088 205.454 15.392 205.454 15.76C205.454 16.128 205.462 16.432 205.478 16.672C205.51 17.888 205.822 18.816 206.414 19.456C207.022 20.08 207.822 20.392 208.814 20.392Z" fill="#BEBEBE"/>
<path d="M218.011 22C217.851 22 217.723 21.952 217.627 21.856C217.531 21.76 217.483 21.632 217.483 21.472V9.976C217.483 9.848 217.531 9.744 217.627 9.664C217.739 9.568 217.851 9.52 217.963 9.52H219.187C219.443 9.52 219.643 9.648 219.787 9.904L223.867 17.536L227.971 9.904C228.115 9.648 228.315 9.52 228.571 9.52H229.771C229.899 9.52 230.011 9.568 230.107 9.664C230.203 9.744 230.251 9.848 230.251 9.976V21.472C230.251 21.632 230.203 21.76 230.107 21.856C230.011 21.952 229.891 22 229.747 22H228.571C228.411 22 228.283 21.952 228.187 21.856C228.091 21.76 228.043 21.632 228.043 21.472V11.896L228.883 11.992L224.971 19.384C224.891 19.544 224.795 19.688 224.683 19.816C224.571 19.944 224.403 20.008 224.179 20.008H223.555C223.347 20.008 223.187 19.944 223.075 19.816C222.963 19.688 222.859 19.544 222.763 19.384L218.971 12.352L219.715 12.28V21.472C219.715 21.632 219.667 21.76 219.571 21.856C219.475 21.952 219.347 22 219.187 22H218.011Z" fill="#BEBEBE"/>
<path d="M240.277 22C240.117 22 239.981 21.952 239.869 21.856C239.773 21.744 239.725 21.608 239.725 21.448V10.072C239.725 9.912 239.773 9.784 239.869 9.688C239.981 9.576 240.117 9.52 240.277 9.52H241.429C241.589 9.52 241.717 9.576 241.813 9.688C241.909 9.784 241.957 9.912 241.957 10.072V21.448C241.957 21.608 241.909 21.744 241.813 21.856C241.717 21.952 241.589 22 241.429 22H240.277ZM240.085 7.192C239.925 7.192 239.789 7.144 239.677 7.048C239.581 6.936 239.533 6.8 239.533 6.64V5.344C239.533 5.184 239.581 5.056 239.677 4.96C239.789 4.848 239.925 4.792 240.085 4.792H241.597C241.757 4.792 241.885 4.848 241.981 4.96C242.093 5.056 242.149 5.184 242.149 5.344V6.64C242.149 6.8 242.093 6.936 241.981 7.048C241.885 7.144 241.757 7.192 241.597 7.192H240.085Z" fill="#BEBEBE"/>
<path d="M249.882 22.24C248.938 22.24 248.138 22.128 247.482 21.904C246.842 21.664 246.322 21.368 245.922 21.016C245.538 20.648 245.258 20.272 245.082 19.888C244.906 19.488 244.81 19.12 244.794 18.784C244.794 18.64 244.842 18.528 244.938 18.448C245.034 18.352 245.146 18.304 245.274 18.304H246.402C246.546 18.304 246.666 18.344 246.762 18.424C246.858 18.488 246.93 18.608 246.978 18.784C247.17 19.392 247.538 19.816 248.082 20.056C248.626 20.296 249.29 20.416 250.074 20.416C250.586 20.416 251.058 20.352 251.49 20.224C251.922 20.08 252.258 19.856 252.498 19.552C252.754 19.248 252.882 18.872 252.882 18.424C252.882 17.768 252.69 17.272 252.306 16.936C251.938 16.6 251.362 16.432 250.578 16.432H249.258C249.098 16.432 248.97 16.384 248.874 16.288C248.778 16.192 248.73 16.064 248.73 15.904V15.256C248.73 15.112 248.778 14.992 248.874 14.896C248.97 14.784 249.098 14.728 249.258 14.728H250.434C251.09 14.728 251.594 14.6 251.946 14.344C252.298 14.088 252.474 13.68 252.474 13.12C252.474 12.784 252.394 12.464 252.234 12.16C252.074 11.856 251.802 11.608 251.418 11.416C251.05 11.208 250.538 11.104 249.882 11.104C248.954 11.104 248.298 11.264 247.914 11.584C247.546 11.888 247.282 12.344 247.122 12.952C247.058 13.128 246.978 13.248 246.882 13.312C246.802 13.376 246.682 13.408 246.522 13.408H245.442C245.298 13.408 245.178 13.368 245.082 13.288C244.986 13.208 244.938 13.096 244.938 12.952C244.954 12.472 245.058 12.016 245.25 11.584C245.458 11.152 245.762 10.76 246.162 10.408C246.578 10.056 247.09 9.784 247.698 9.592C248.322 9.384 249.05 9.28 249.882 9.28C251.082 9.28 252.026 9.464 252.714 9.832C253.418 10.2 253.914 10.656 254.202 11.2C254.506 11.728 254.658 12.256 254.658 12.784C254.658 13.408 254.554 13.928 254.346 14.344C254.154 14.76 253.77 15.112 253.194 15.4C253.914 15.672 254.41 16.08 254.682 16.624C254.954 17.168 255.098 17.8 255.114 18.52C255.13 19.352 254.906 20.04 254.442 20.584C253.994 21.128 253.378 21.544 252.594 21.832C251.81 22.104 250.906 22.24 249.882 22.24Z" fill="#BEBEBE"/>
<path d="M264.254 22C264.094 22 263.958 21.952 263.846 21.856C263.75 21.744 263.702 21.608 263.702 21.448V10.072C263.702 9.912 263.75 9.784 263.846 9.688C263.958 9.576 264.094 9.52 264.254 9.52H265.406C265.566 9.52 265.694 9.576 265.79 9.688C265.886 9.784 265.934 9.912 265.934 10.072V14.68H272.486V10.072C272.486 9.912 272.534 9.784 272.63 9.688C272.742 9.576 272.878 9.52 273.038 9.52H274.166C274.326 9.52 274.454 9.576 274.55 9.688C274.662 9.784 274.718 9.912 274.718 10.072V21.448C274.718 21.608 274.662 21.744 274.55 21.856C274.454 21.952 274.326 22 274.166 22H273.038C272.878 22 272.742 21.952 272.63 21.856C272.534 21.744 272.486 21.608 272.486 21.448V16.6H265.934V21.448C265.934 21.608 265.886 21.744 265.79 21.856C265.694 21.952 265.566 22 265.406 22H264.254Z" fill="#BEBEBE"/>
<path d="M281.807 22.24C281.007 22.24 280.279 22.08 279.623 21.76C278.967 21.44 278.439 21.008 278.039 20.464C277.639 19.92 277.439 19.304 277.439 18.616C277.439 17.512 277.887 16.632 278.783 15.976C279.679 15.32 280.847 14.888 282.287 14.68L285.863 14.176V13.48C285.863 12.712 285.639 12.112 285.191 11.68C284.759 11.248 284.047 11.032 283.055 11.032C282.335 11.032 281.751 11.176 281.303 11.464C280.871 11.752 280.567 12.12 280.391 12.568C280.295 12.808 280.127 12.928 279.887 12.928H278.807C278.631 12.928 278.495 12.88 278.399 12.784C278.319 12.672 278.279 12.544 278.279 12.4C278.279 12.16 278.367 11.864 278.543 11.512C278.735 11.16 279.023 10.816 279.407 10.48C279.791 10.144 280.279 9.864 280.871 9.64C281.479 9.4 282.215 9.28 283.079 9.28C284.039 9.28 284.847 9.408 285.503 9.664C286.159 9.904 286.671 10.232 287.039 10.648C287.423 11.064 287.695 11.536 287.855 12.064C288.031 12.592 288.119 13.128 288.119 13.672V21.448C288.119 21.608 288.063 21.744 287.951 21.856C287.855 21.952 287.727 22 287.567 22H286.463C286.287 22 286.151 21.952 286.055 21.856C285.959 21.744 285.911 21.608 285.911 21.448V20.416C285.703 20.704 285.423 20.992 285.071 21.28C284.719 21.552 284.279 21.784 283.751 21.976C283.223 22.152 282.575 22.24 281.807 22.24ZM282.311 20.44C282.967 20.44 283.567 20.304 284.111 20.032C284.655 19.744 285.079 19.304 285.383 18.712C285.703 18.12 285.863 17.376 285.863 16.48V15.808L283.079 16.216C281.943 16.376 281.087 16.648 280.511 17.032C279.935 17.4 279.647 17.872 279.647 18.448C279.647 18.896 279.775 19.272 280.031 19.576C280.303 19.864 280.639 20.08 281.039 20.224C281.455 20.368 281.879 20.44 282.311 20.44Z" fill="#BEBEBE"/>
<path d="M292.097 22C291.937 22 291.809 21.952 291.713 21.856C291.617 21.76 291.569 21.632 291.569 21.472V9.976C291.569 9.848 291.617 9.744 291.713 9.664C291.825 9.568 291.937 9.52 292.049 9.52H293.273C293.529 9.52 293.729 9.648 293.873 9.904L297.953 17.536L302.057 9.904C302.201 9.648 302.401 9.52 302.657 9.52H303.857C303.985 9.52 304.097 9.568 304.193 9.664C304.289 9.744 304.337 9.848 304.337 9.976V21.472C304.337 21.632 304.289 21.76 304.193 21.856C304.097 21.952 303.977 22 303.833 22H302.657C302.497 22 302.369 21.952 302.273 21.856C302.177 21.76 302.129 21.632 302.129 21.472V11.896L302.969 11.992L299.057 19.384C298.977 19.544 298.881 19.688 298.769 19.816C298.657 19.944 298.489 20.008 298.265 20.008H297.641C297.433 20.008 297.273 19.944 297.161 19.816C297.049 19.688 296.945 19.544 296.849 19.384L293.057 12.352L293.801 12.28V21.472C293.801 21.632 293.753 21.76 293.657 21.856C293.561 21.952 293.433 22 293.273 22H292.097Z" fill="#BEBEBE"/>
<path d="M308.456 22C308.312 22 308.184 21.952 308.072 21.856C307.976 21.744 307.928 21.624 307.928 21.496V10.072C307.928 9.912 307.976 9.784 308.072 9.688C308.184 9.576 308.32 9.52 308.48 9.52H309.632C309.792 9.52 309.92 9.576 310.016 9.688C310.112 9.784 310.16 9.912 310.16 10.072V20.248L309.536 19.6L316.808 9.88C316.888 9.784 316.976 9.704 317.072 9.64C317.168 9.56 317.288 9.52 317.432 9.52H318.536C318.664 9.52 318.776 9.568 318.872 9.664C318.984 9.76 319.04 9.872 319.04 10V21.448C319.04 21.608 318.984 21.744 318.872 21.856C318.776 21.952 318.648 22 318.488 22H317.36C317.184 22 317.048 21.952 316.952 21.856C316.856 21.744 316.808 21.608 316.808 21.448V11.872L317.48 11.848L310.16 21.64C310.096 21.72 310.016 21.8 309.92 21.88C309.824 21.96 309.696 22 309.536 22H308.456Z" fill="#BEBEBE"/>
<path d="M336.62 23.008C336.26 20.944 334.796 18.352 332.012 16.264C330.644 15.232 329.252 14.56 327.884 14.272V13.264C330.596 12.616 333.26 10.792 334.964 8.32C335.828 7.072 336.38 5.848 336.62 4.576H337.628C338.036 7 339.908 9.688 342.452 11.488C343.7 12.376 344.996 12.976 346.316 13.264V14.272C343.652 14.824 340.556 17.2 339.02 19.624C338.252 20.848 337.796 21.976 337.628 23.008H336.62Z" fill="#BEBEBE"/>
</svg>
