<svg width="260" height="65" viewBox="0 0 260 65" fill="none" xmlns="http://www.w3.org/2000/svg">
<path d="M11.0966 52.5709C8.8441 52.5709 6.89982 52.2051 5.26378 51.4735C3.65145 50.7183 2.39478 49.6327 1.49378 48.2168C0.616479 46.7772 0.130409 45.0308 0.035566 42.9777C0.0118553 41.9629 0 40.8891 0 39.7563C0 38.5999 0.0118553 37.5026 0.035566 36.4642C0.130409 34.4582 0.628335 32.759 1.52934 31.3667C2.43035 29.9743 3.69888 28.9123 5.33492 28.1807C6.97096 27.4491 8.89153 27.0833 11.0966 27.0833C12.8749 27.0833 14.4517 27.3075 15.8269 27.7559C17.2021 28.1807 18.3521 28.7589 19.2768 29.4905C20.2253 30.2221 20.9366 31.0245 21.4108 31.8976C21.9087 32.7708 22.1695 33.6322 22.1933 34.4818C22.217 34.6942 22.1458 34.8712 21.9799 35.0128C21.8376 35.1544 21.6598 35.2252 21.4464 35.2252H16.2537C15.9929 35.2252 15.7914 35.1898 15.6491 35.119C15.5305 35.0246 15.4238 34.8948 15.329 34.7296C15.163 34.3756 14.9141 34.0098 14.5821 33.6322C14.2739 33.231 13.8352 32.8888 13.2662 32.6056C12.7208 32.3224 11.9976 32.1808 11.0966 32.1808C9.74511 32.1808 8.67813 32.5348 7.89568 33.2428C7.13693 33.9508 6.72199 35.0836 6.65086 36.6412C6.57973 38.6707 6.57973 40.7239 6.65086 42.8007C6.72199 44.4526 7.16064 45.6444 7.96681 46.376C8.77297 47.1076 9.83996 47.4734 11.1678 47.4734C12.0688 47.4734 12.8631 47.32 13.5507 47.0132C14.262 46.7064 14.8192 46.2344 15.2223 45.5972C15.6254 44.9364 15.8269 44.0986 15.8269 43.0839V42.4113H12.4837C12.2229 42.4113 11.9976 42.3287 11.8079 42.1635C11.642 41.9747 11.559 41.7505 11.559 41.4909V38.8713C11.559 38.6117 11.642 38.3993 11.8079 38.2341C11.9976 38.0453 12.2229 37.9509 12.4837 37.9509H21.4464C21.7072 37.9509 21.9206 38.0453 22.0866 38.2341C22.2525 38.3993 22.3355 38.6117 22.3355 38.8713V42.9069C22.3355 44.9364 21.8732 46.671 20.9484 48.1106C20.0237 49.5501 18.7078 50.6593 17.0006 51.4381C15.3171 52.1933 13.3491 52.5709 11.0966 52.5709Z" fill="white"/>
<path d="M34.7739 52.5709C32.7822 52.5709 31.0988 52.2523 29.7235 51.6151C28.372 50.9779 27.3288 50.0693 26.5937 48.8894C25.8824 47.6858 25.4793 46.258 25.3845 44.606C25.3608 44.134 25.3489 43.603 25.3489 43.0131C25.3489 42.3995 25.3608 41.8685 25.3845 41.4201C25.4793 39.7445 25.9061 38.3167 26.6649 37.1368C27.4236 35.9568 28.4787 35.0482 29.8302 34.411C31.2055 33.7738 32.8534 33.4552 34.7739 33.4552C36.7182 33.4552 38.3661 33.7738 39.7176 34.411C41.0928 35.0482 42.1598 35.9568 42.9186 37.1368C43.6773 38.3167 44.1041 39.7445 44.1989 41.4201C44.2227 41.8685 44.2345 42.3995 44.2345 43.0131C44.2345 43.603 44.2227 44.134 44.1989 44.606C44.1041 46.258 43.6892 47.6858 42.9541 48.8894C42.2428 50.0693 41.1995 50.9779 39.8243 51.6151C38.4728 52.2523 36.7893 52.5709 34.7739 52.5709ZM34.7739 48.2522C35.8409 48.2522 36.6115 47.9336 37.0857 47.2964C37.5836 46.6592 37.8682 45.7034 37.9393 44.429C37.963 44.075 37.9749 43.603 37.9749 43.0131C37.9749 42.4231 37.963 41.9511 37.9393 41.5971C37.8682 40.3463 37.5836 39.4023 37.0857 38.7651C36.6115 38.1043 35.8409 37.7739 34.7739 37.7739C33.7307 37.7739 32.9601 38.1043 32.4621 38.7651C31.9642 39.4023 31.6915 40.3463 31.6441 41.5971C31.6204 41.9511 31.6085 42.4231 31.6085 43.0131C31.6085 43.603 31.6204 44.075 31.6441 44.429C31.6915 45.7034 31.9642 46.6592 32.4621 47.2964C32.9601 47.9336 33.7307 48.2522 34.7739 48.2522Z" fill="white"/>
<path d="M49.0129 52.2169C48.7521 52.2169 48.5387 52.1343 48.3727 51.9691C48.2067 51.8039 48.1237 51.5915 48.1237 51.3319V28.3223C48.1237 28.0627 48.2067 27.8503 48.3727 27.6851C48.5387 27.5199 48.7521 27.4373 49.0129 27.4373H53.7787C54.0396 27.4373 54.2529 27.5199 54.4189 27.6851C54.5849 27.8503 54.6679 28.0627 54.6679 28.3223V51.3319C54.6679 51.5915 54.5849 51.8039 54.4189 51.9691C54.2529 52.1343 54.0396 52.2169 53.7787 52.2169H49.0129Z" fill="white"/>
<path d="M66.0213 52.2169C65.7604 52.2169 65.547 52.1343 65.3811 51.9691C65.2151 51.8039 65.1321 51.5915 65.1321 51.3319V32.995H58.8013C58.5405 32.995 58.3271 32.9124 58.1611 32.7472C57.9952 32.5584 57.9122 32.346 57.9122 32.11V28.3223C57.9122 28.0627 57.9952 27.8503 58.1611 27.6851C58.3271 27.5199 58.5405 27.4373 58.8013 27.4373H77.9359C78.1967 27.4373 78.4101 27.5199 78.5761 27.6851C78.7421 27.8503 78.8251 28.0627 78.8251 28.3223V32.11C78.8251 32.346 78.7421 32.5584 78.5761 32.7472C78.4101 32.9124 78.1967 32.995 77.9359 32.995H71.6051V51.3319C71.6051 51.5915 71.5221 51.8039 71.3562 51.9691C71.1902 52.1343 70.9768 52.2169 70.716 52.2169H66.0213Z" fill="white"/>
<path d="M90.202 52.5709C87.4042 52.5709 85.1754 51.8157 83.5156 50.3053C81.8559 48.795 80.9904 46.553 80.9193 43.5794C80.9193 43.4142 80.9193 43.2019 80.9193 42.9423C80.9193 42.6827 80.9193 42.4821 80.9193 42.3405C80.9904 40.4761 81.4053 38.8831 82.1641 37.5616C82.9465 36.2164 84.0135 35.2016 85.3651 34.5172C86.7403 33.8092 88.3408 33.4552 90.1665 33.4552C92.253 33.4552 93.9721 33.8682 95.3236 34.6942C96.6988 35.5202 97.7302 36.6412 98.4178 38.0571C99.1054 39.4731 99.4492 41.0897 99.4492 42.9069V43.7564C99.4492 44.016 99.3544 44.2284 99.1647 44.3936C98.9987 44.5588 98.7972 44.6414 98.5601 44.6414H87.1789C87.1789 44.665 87.1789 44.7004 87.1789 44.7476C87.1789 44.7948 87.1789 44.842 87.1789 44.8892C87.2026 45.5736 87.3212 46.199 87.5346 46.7654C87.748 47.3318 88.0799 47.7802 88.5304 48.1106C88.9809 48.441 89.5263 48.6062 90.1665 48.6062C90.6407 48.6062 91.0319 48.5354 91.3402 48.3938C91.6721 48.2286 91.9448 48.0516 92.1582 47.8628C92.3716 47.6504 92.5375 47.4734 92.6561 47.3318C92.8695 47.0958 93.0355 46.9542 93.154 46.907C93.2963 46.8362 93.5097 46.8008 93.7942 46.8008H98.2044C98.4415 46.8008 98.6312 46.8716 98.7735 47.0132C98.9395 47.1312 99.0106 47.3082 98.9869 47.5442C98.9632 47.9454 98.7616 48.4292 98.3823 48.9955C98.0029 49.5619 97.4457 50.1283 96.7106 50.6947C95.9993 51.2375 95.0983 51.6859 94.0076 52.0399C92.9169 52.3939 91.6484 52.5709 90.202 52.5709ZM87.1789 41.1369H93.1896V41.0661C93.1896 40.3109 93.071 39.6501 92.8339 39.0837C92.6205 38.5173 92.2767 38.0807 91.8025 37.7739C91.352 37.4672 90.8067 37.3138 90.1665 37.3138C89.5263 37.3138 88.9809 37.4672 88.5304 37.7739C88.1036 38.0807 87.7717 38.5173 87.5346 39.0837C87.2975 39.6501 87.1789 40.3109 87.1789 41.0661V41.1369Z" fill="#15FF10"/>
<path d="M111.319 52.5709C108.522 52.5709 106.293 51.8157 104.633 50.3053C102.973 48.795 102.108 46.553 102.037 43.5794C102.037 43.4142 102.037 43.2019 102.037 42.9423C102.037 42.6827 102.037 42.4821 102.037 42.3405C102.108 40.4761 102.523 38.8831 103.281 37.5616C104.064 36.2164 105.131 35.2016 106.482 34.5172C107.858 33.8092 109.458 33.4552 111.284 33.4552C113.37 33.4552 115.089 33.8682 116.441 34.6942C117.816 35.5202 118.848 36.6412 119.535 38.0571C120.223 39.4731 120.567 41.0897 120.567 42.9069V43.7564C120.567 44.016 120.472 44.2284 120.282 44.3936C120.116 44.5588 119.915 44.6414 119.677 44.6414H108.296C108.296 44.665 108.296 44.7004 108.296 44.7476C108.296 44.7948 108.296 44.842 108.296 44.8892C108.32 45.5736 108.439 46.199 108.652 46.7654C108.865 47.3318 109.197 47.7802 109.648 48.1106C110.098 48.441 110.644 48.6062 111.284 48.6062C111.758 48.6062 112.149 48.5354 112.458 48.3938C112.789 48.2286 113.062 48.0516 113.276 47.8628C113.489 47.6504 113.655 47.4734 113.773 47.3318C113.987 47.0958 114.153 46.9542 114.271 46.907C114.414 46.8362 114.627 46.8008 114.912 46.8008H119.322C119.559 46.8008 119.749 46.8716 119.891 47.0132C120.057 47.1312 120.128 47.3082 120.104 47.5442C120.081 47.9454 119.879 48.4292 119.5 48.9955C119.12 49.5619 118.563 50.1283 117.828 50.6947C117.117 51.2375 116.216 51.6859 115.125 52.0399C114.034 52.3939 112.766 52.5709 111.319 52.5709ZM108.296 41.1369H114.307V41.0661C114.307 40.3109 114.188 39.6501 113.951 39.0837C113.738 38.5173 113.394 38.0807 112.92 37.7739C112.469 37.4672 111.924 37.3138 111.284 37.3138C110.644 37.3138 110.098 37.4672 109.648 37.7739C109.221 38.0807 108.889 38.5173 108.652 39.0837C108.415 39.6501 108.296 40.3109 108.296 41.0661V41.1369Z" fill="#15FF10"/>
<path d="M124.79 52.2169C124.529 52.2169 124.316 52.1343 124.15 51.9691C123.984 51.8039 123.901 51.5915 123.901 51.3319V34.6942C123.901 34.4346 123.984 34.2222 124.15 34.057C124.316 33.8918 124.529 33.8092 124.79 33.8092H128.88C129.141 33.8092 129.354 33.8918 129.52 34.057C129.686 34.2222 129.769 34.4346 129.769 34.6942V36.0394C130.386 35.3078 131.192 34.6942 132.188 34.1986C133.184 33.703 134.357 33.4552 135.709 33.4552C137.084 33.4552 138.293 33.762 139.337 34.3756C140.404 34.9892 141.233 35.8978 141.826 37.1014C142.443 38.2813 142.751 39.7327 142.751 41.4555V51.3319C142.751 51.5915 142.656 51.8039 142.466 51.9691C142.3 52.1343 142.099 52.2169 141.862 52.2169H137.38C137.143 52.2169 136.93 52.1343 136.74 51.9691C136.574 51.8039 136.491 51.5915 136.491 51.3319V41.6679C136.491 40.5587 136.219 39.7091 135.673 39.1191C135.152 38.5055 134.369 38.1987 133.326 38.1987C132.354 38.1987 131.571 38.5055 130.979 39.1191C130.41 39.7091 130.125 40.5587 130.125 41.6679V51.3319C130.125 51.5915 130.03 51.8039 129.84 51.9691C129.674 52.1343 129.473 52.2169 129.236 52.2169H124.79Z" fill="white"/>
<path d="M154.331 52.5709C152.79 52.5709 151.474 52.4057 150.383 52.0753C149.317 51.7213 148.439 51.2965 147.752 50.8009C147.088 50.3053 146.59 49.7979 146.258 49.2787C145.926 48.736 145.748 48.2758 145.724 47.8982C145.701 47.6386 145.784 47.4262 145.973 47.261C146.163 47.0722 146.365 46.9778 146.578 46.9778H150.632C150.704 46.9778 150.763 46.9896 150.81 47.0132C150.858 47.0368 150.929 47.084 151.024 47.1548C151.332 47.32 151.64 47.5324 151.948 47.792C152.257 48.028 152.612 48.2404 153.015 48.4292C153.418 48.618 153.905 48.7124 154.474 48.7124C155.137 48.7124 155.695 48.5826 156.145 48.323C156.596 48.0634 156.821 47.674 156.821 47.1548C156.821 46.7772 156.714 46.4704 156.501 46.2344C156.287 45.9748 155.849 45.727 155.185 45.491C154.545 45.255 153.573 45.019 152.269 44.783C151.036 44.4998 149.957 44.134 149.032 43.6856C148.107 43.2137 147.396 42.6119 146.898 41.8803C146.4 41.1251 146.151 40.2165 146.151 39.1545C146.151 38.2105 146.459 37.302 147.076 36.4288C147.692 35.5556 148.593 34.8476 149.779 34.3048C150.964 33.7384 152.423 33.4552 154.154 33.4552C155.529 33.4552 156.714 33.6204 157.71 33.9508C158.73 34.2576 159.583 34.6588 160.271 35.1544C160.982 35.65 161.516 36.1574 161.871 36.6766C162.227 37.1958 162.417 37.6677 162.44 38.0925C162.464 38.3285 162.393 38.5409 162.227 38.7297C162.061 38.8949 161.871 38.9775 161.658 38.9775H157.959C157.864 38.9775 157.769 38.9657 157.675 38.9421C157.58 38.8949 157.497 38.8477 157.426 38.8005C157.141 38.6589 156.857 38.4701 156.572 38.2341C156.287 37.9981 155.956 37.7857 155.576 37.5969C155.197 37.4081 154.723 37.3138 154.154 37.3138C153.513 37.3138 153.015 37.4554 152.66 37.7385C152.304 38.0217 152.126 38.3875 152.126 38.8359C152.126 39.1427 152.221 39.4259 152.411 39.6855C152.624 39.9451 153.039 40.1811 153.656 40.3935C154.296 40.6059 155.28 40.8419 156.608 41.1015C158.244 41.3611 159.548 41.7859 160.52 42.3759C161.492 42.9423 162.18 43.6148 162.583 44.3936C162.986 45.1488 163.187 45.9512 163.187 46.8008C163.187 47.9336 162.843 48.9366 162.156 49.8097C161.492 50.6829 160.496 51.3673 159.168 51.8629C157.841 52.3349 156.228 52.5709 154.331 52.5709Z" fill="white"/>
<path d="M167.659 52.2169C167.398 52.2169 167.185 52.1343 167.019 51.9691C166.853 51.8039 166.77 51.5915 166.77 51.3319V28.3223C166.77 28.0627 166.853 27.8503 167.019 27.6851C167.185 27.5199 167.398 27.4373 167.659 27.4373H172.354C172.591 27.4373 172.793 27.5199 172.959 27.6851C173.148 27.8503 173.243 28.0627 173.243 28.3223V46.8716H183.984C184.245 46.8716 184.458 46.966 184.624 47.1548C184.814 47.32 184.909 47.5324 184.909 47.792V51.3319C184.909 51.5915 184.814 51.8039 184.624 51.9691C184.458 52.1343 184.245 52.2169 183.984 52.2169H167.659Z" fill="white"/>
<path d="M193.149 52.5709C191.868 52.5709 190.718 52.3349 189.699 51.8629C188.703 51.3673 187.909 50.7065 187.316 49.8805C186.723 49.0546 186.427 48.1224 186.427 47.084C186.427 45.4084 187.114 44.0868 188.49 43.1193C189.865 42.1281 191.69 41.4555 193.967 41.1015L198.412 40.4289V39.9333C198.412 39.0837 198.235 38.4347 197.879 37.9863C197.523 37.5379 196.871 37.3138 195.923 37.3138C195.259 37.3138 194.714 37.4436 194.287 37.7031C193.884 37.9627 193.564 38.3167 193.327 38.7651C193.113 39.0719 192.817 39.2253 192.437 39.2253H188.454C188.193 39.2253 187.992 39.1545 187.849 39.0129C187.707 38.8477 187.648 38.6589 187.672 38.4465C187.672 38.0217 187.826 37.5379 188.134 36.9952C188.466 36.4288 188.964 35.8742 189.628 35.3314C190.292 34.7886 191.145 34.3402 192.188 33.9862C193.232 33.6322 194.488 33.4552 195.958 33.4552C197.5 33.4552 198.816 33.6322 199.906 33.9862C200.997 34.3402 201.874 34.8358 202.538 35.473C203.226 36.1102 203.736 36.8654 204.067 37.7385C204.399 38.5881 204.565 39.5321 204.565 40.5705V51.3319C204.565 51.5915 204.471 51.8039 204.281 51.9691C204.115 52.1343 203.913 52.2169 203.676 52.2169H199.551C199.29 52.2169 199.076 52.1343 198.91 51.9691C198.744 51.8039 198.661 51.5915 198.661 51.3319V50.0929C198.353 50.5413 197.938 50.9543 197.417 51.3319C196.895 51.7095 196.279 52.0045 195.567 52.2169C194.88 52.4529 194.073 52.5709 193.149 52.5709ZM194.82 48.5354C195.508 48.5354 196.124 48.3938 196.67 48.1106C197.239 47.8038 197.677 47.3436 197.986 46.73C198.318 46.0928 198.484 45.3022 198.484 44.3582V43.8626L195.46 44.3936C194.346 44.5824 193.528 44.8774 193.006 45.2786C192.508 45.6562 192.26 46.1046 192.26 46.6238C192.26 47.025 192.378 47.3672 192.615 47.6504C192.852 47.9336 193.161 48.1578 193.54 48.323C193.919 48.4646 194.346 48.5354 194.82 48.5354Z" fill="white"/>
<path d="M219.889 52.5709C218.561 52.5709 217.447 52.3467 216.546 51.8983C215.668 51.4499 214.945 50.8835 214.376 50.1991V51.3319C214.376 51.5915 214.281 51.8039 214.092 51.9691C213.926 52.1343 213.724 52.2169 213.487 52.2169H209.468C209.207 52.2169 208.994 52.1343 208.828 51.9691C208.662 51.8039 208.579 51.5915 208.579 51.3319V27.9683C208.579 27.7087 208.662 27.4963 208.828 27.3311C208.994 27.1659 209.207 27.0833 209.468 27.0833H213.807C214.068 27.0833 214.281 27.1659 214.447 27.3311C214.613 27.4963 214.696 27.7087 214.696 27.9683V35.5438C215.265 34.9302 215.977 34.4346 216.83 34.057C217.707 33.6558 218.727 33.4552 219.889 33.4552C221.074 33.4552 222.118 33.6558 223.019 34.057C223.943 34.4346 224.726 34.9892 225.366 35.7208C226.006 36.4524 226.504 37.3256 226.86 38.3403C227.215 39.3551 227.417 40.4997 227.464 41.7741C227.488 42.2225 227.5 42.6355 227.5 43.0131C227.5 43.3671 227.488 43.78 227.464 44.252C227.417 45.5736 227.204 46.7536 226.824 47.792C226.469 48.8068 225.971 49.6799 225.33 50.4115C224.69 51.1195 223.92 51.6623 223.019 52.0399C222.118 52.3939 221.074 52.5709 219.889 52.5709ZM217.968 47.8274C218.774 47.8274 219.403 47.6622 219.853 47.3318C220.304 47.0014 220.624 46.553 220.814 45.9866C221.027 45.4202 221.157 44.7948 221.205 44.1104C221.252 43.3788 221.252 42.6473 221.205 41.9157C221.157 41.2313 221.027 40.6059 220.814 40.0395C220.624 39.4731 220.304 39.0247 219.853 38.6943C219.403 38.3639 218.774 38.1987 217.968 38.1987C217.233 38.1987 216.629 38.3639 216.154 38.6943C215.68 39.0011 215.325 39.4141 215.087 39.9333C214.85 40.4289 214.72 40.9717 214.696 41.5617C214.672 42.0101 214.661 42.4467 214.661 42.8715C214.661 43.2963 214.672 43.7446 214.696 44.2166C214.72 44.8538 214.838 45.4438 215.052 45.9866C215.265 46.5294 215.609 46.9778 216.083 47.3318C216.557 47.6622 217.186 47.8274 217.968 47.8274Z" fill="white"/>
<path d="M83.1105 62.9984C82.645 62.911 82.3039 62.5047 82.3039 62.0333V57.3621C82.3039 56.7375 82.8841 56.2719 83.4989 56.3969C97.4387 59.2303 105.295 59.1989 117.643 56.4281C118.264 56.2887 118.858 56.7567 118.858 57.3903V62.0495C118.858 62.5137 118.528 62.9158 118.071 63.0102C105.103 65.6936 97.1643 65.6366 83.1105 62.9984Z" fill="#15FF10"/>
<path d="M230.813 17.2656C235.946 12.2741 236.979 0 236.979 0V23.0208H213.958C213.958 23.0208 225.827 22.1145 230.813 17.2656Z" fill="#15FF10"/>
<path d="M243.145 17.2656C238.012 12.2741 236.979 0 236.979 0V23.0208H260C260 23.0208 248.132 22.1145 243.145 17.2656Z" fill="#15FF10"/>
<path d="M230.813 28.776C235.946 33.7675 236.979 46.0417 236.979 46.0417V23.0208H213.958C213.958 23.0208 225.827 23.9271 230.813 28.776Z" fill="#15FF10"/>
<path d="M243.145 28.776C238.012 33.7675 236.979 46.0417 236.979 46.0417V23.0208H260C260 23.0208 248.132 23.9271 243.145 28.776Z" fill="#15FF10"/>
</svg>
