<svg width="168" height="28" viewBox="0 0 168 28" fill="none" xmlns="http://www.w3.org/2000/svg">
<path d="M8.19443 18.8216C6.53103 18.8216 5.09526 18.5515 3.8871 18.0112C2.69646 17.4535 1.76846 16.6519 1.1031 15.6062C0.455246 14.5432 0.096302 13.2535 0.0262642 11.7373C0.00875472 10.988 0 10.195 0 9.35851C0 8.50457 0.00875472 7.69419 0.0262642 6.92739C0.096302 5.44606 0.464001 4.19129 1.12936 3.16307C1.79472 2.13486 2.73148 1.35062 3.93963 0.810374C5.14778 0.270125 6.56605 0 8.19443 0C9.50764 0 10.672 0.16556 11.6876 0.49668C12.7031 0.810373 13.5523 1.23734 14.2352 1.77759C14.9356 2.31784 15.4609 2.91037 15.8111 3.55519C16.1787 4.2 16.3714 4.8361 16.3889 5.46349C16.4064 5.62033 16.3538 5.75104 16.2313 5.8556C16.1262 5.96017 15.9949 6.01245 15.8373 6.01245H12.0027C11.8101 6.01245 11.6613 5.98631 11.5562 5.93403C11.4687 5.86432 11.3899 5.76847 11.3199 5.64647C11.1973 5.38506 11.0135 5.11494 10.7683 4.8361C10.5407 4.53983 10.2168 4.28714 9.79655 4.07801C9.39383 3.86888 8.85979 3.76432 8.19443 3.76432C7.19639 3.76432 6.40847 4.02573 5.83065 4.54855C5.27035 5.07137 4.96393 5.90788 4.91141 7.05809C4.85888 8.55685 4.85888 10.073 4.91141 11.6066C4.96393 12.8266 5.28786 13.7066 5.88318 14.2469C6.4785 14.7871 7.26643 15.0573 8.24696 15.0573C8.91232 15.0573 9.49889 14.944 10.0067 14.7174C10.5319 14.4909 10.9434 14.1423 11.2411 13.6718C11.5387 13.1838 11.6876 12.5651 11.6876 11.8158V11.3191H9.21874C9.02613 11.3191 8.85979 11.2581 8.71972 11.1361C8.59715 10.9967 8.53587 10.8311 8.53587 10.6394V8.70498C8.53587 8.51328 8.59715 8.35643 8.71972 8.23444C8.85979 8.09502 9.02613 8.02531 9.21874 8.02531H15.8373C16.0299 8.02531 16.1875 8.09502 16.3101 8.23444C16.4326 8.35643 16.4939 8.51328 16.4939 8.70498V11.6851C16.4939 13.1838 16.1525 14.4647 15.4696 15.5278C14.7867 16.5909 13.815 17.41 12.5543 17.9851C11.3111 18.5427 9.85783 18.8216 8.19443 18.8216Z" fill="white"/>
<path d="M25.6792 18.8216C24.2084 18.8216 22.9652 18.5863 21.9497 18.1158C20.9517 17.6452 20.1812 16.9743 19.6384 16.1029C19.1132 15.2141 18.8155 14.1598 18.7455 12.9398C18.728 12.5913 18.7192 12.1992 18.7192 11.7635C18.7192 11.3104 18.728 10.9183 18.7455 10.5871C18.8155 9.34979 19.1307 8.29544 19.691 7.42407C20.2513 6.5527 21.0304 5.88174 22.0285 5.4112C23.044 4.94066 24.2609 4.70539 25.6792 4.70539C27.115 4.70539 28.3319 4.94066 29.3299 5.4112C30.3455 5.88174 31.1334 6.5527 31.6937 7.42407C32.254 8.29544 32.5692 9.34979 32.6392 10.5871C32.6567 10.9183 32.6655 11.3104 32.6655 11.7635C32.6655 12.1992 32.6567 12.5913 32.6392 12.9398C32.5692 14.1598 32.2628 15.2141 31.72 16.1029C31.1947 16.9743 30.4243 17.6452 29.4087 18.1158C28.4107 18.5863 27.1675 18.8216 25.6792 18.8216ZM25.6792 15.6324C26.4671 15.6324 27.0362 15.3971 27.3864 14.9266C27.7541 14.456 27.9642 13.7502 28.0167 12.8091C28.0342 12.5477 28.043 12.1992 28.043 11.7635C28.043 11.3278 28.0342 10.9793 28.0167 10.7178C27.9642 9.79419 27.7541 9.0971 27.3864 8.62656C27.0362 8.13859 26.4671 7.89461 25.6792 7.89461C24.9088 7.89461 24.3397 8.13859 23.972 8.62656C23.6043 9.0971 23.403 9.79419 23.368 10.7178C23.3504 10.9793 23.3417 11.3278 23.3417 11.7635C23.3417 12.1992 23.3504 12.5477 23.368 12.8091C23.403 13.7502 23.6043 14.456 23.972 14.9266C24.3397 15.3971 24.9088 15.6324 25.6792 15.6324Z" fill="white"/>
<path d="M36.1941 18.5602C36.0015 18.5602 35.8439 18.4992 35.7214 18.3772C35.5988 18.2552 35.5375 18.0983 35.5375 17.9066V0.914939C35.5375 0.723237 35.5988 0.56639 35.7214 0.444399C35.8439 0.322407 36.0015 0.261411 36.1941 0.261411H39.7135C39.9061 0.261411 40.0637 0.322407 40.1863 0.444399C40.3088 0.56639 40.3701 0.723237 40.3701 0.914939V17.9066C40.3701 18.0983 40.3088 18.2552 40.1863 18.3772C40.0637 18.4992 39.9061 18.5602 39.7135 18.5602H36.1941Z" fill="white"/>
<path d="M48.7542 18.5602C48.5616 18.5602 48.404 18.4992 48.2814 18.3772C48.1588 18.2552 48.0976 18.0983 48.0976 17.9066V4.36556H43.4225C43.2299 4.36556 43.0723 4.30457 42.9498 4.18257C42.8272 4.04315 42.7659 3.88631 42.7659 3.71203V0.914939C42.7659 0.723237 42.8272 0.56639 42.9498 0.444399C43.0723 0.322407 43.2299 0.261411 43.4225 0.261411H57.5527C57.7453 0.261411 57.9029 0.322407 58.0254 0.444399C58.148 0.56639 58.2093 0.723237 58.2093 0.914939V3.71203C58.2093 3.88631 58.148 4.04315 58.0254 4.18257C57.9029 4.30457 57.7453 4.36556 57.5527 4.36556H52.8776V17.9066C52.8776 18.0983 52.8164 18.2552 52.6938 18.3772C52.5712 18.4992 52.4136 18.5602 52.221 18.5602H48.7542Z" fill="white"/>
<path d="M66.6107 18.8216C64.5446 18.8216 62.8987 18.2639 61.6731 17.1486C60.4474 16.0332 59.8083 14.3776 59.7558 12.1817C59.7558 12.0598 59.7558 11.9029 59.7558 11.7112C59.7558 11.5195 59.7558 11.3714 59.7558 11.2668C59.8083 9.89004 60.1147 8.71369 60.675 7.73776C61.2528 6.7444 62.0408 5.99502 63.0388 5.48963C64.0544 4.96681 65.2363 4.70539 66.5845 4.70539C68.1253 4.70539 69.3948 5.01037 70.3928 5.62033C71.4083 6.23029 72.17 7.05809 72.6778 8.10374C73.1855 9.14938 73.4394 10.3432 73.4394 11.6851V12.3125C73.4394 12.5042 73.3694 12.661 73.2293 12.783C73.1068 12.905 72.9579 12.966 72.7828 12.966H64.3783C64.3783 12.9834 64.3783 13.0095 64.3783 13.0444C64.3783 13.0793 64.3783 13.1141 64.3783 13.149C64.3958 13.6544 64.4833 14.1162 64.6409 14.5344C64.7985 14.9527 65.0436 15.2838 65.3763 15.5278C65.709 15.7718 66.1117 15.8938 66.5845 15.8938C66.9347 15.8938 67.2236 15.8415 67.4512 15.7369C67.6963 15.6149 67.8977 15.4842 68.0553 15.3448C68.2129 15.188 68.3354 15.0573 68.423 14.9527C68.5806 14.7784 68.7031 14.6739 68.7907 14.639C68.8957 14.5867 69.0533 14.5606 69.2634 14.5606H72.5202C72.6953 14.5606 72.8354 14.6129 72.9404 14.7174C73.063 14.8046 73.1155 14.9353 73.098 15.1095C73.0805 15.4058 72.9317 15.7631 72.6515 16.1813C72.3714 16.5996 71.9599 17.0178 71.4171 17.4361C70.8918 17.8369 70.2264 18.1681 69.421 18.4295C68.6156 18.6909 67.6788 18.8216 66.6107 18.8216ZM64.3783 10.378H68.8169V10.3257C68.8169 9.76805 68.7294 9.28008 68.5543 8.86183C68.3967 8.44357 68.1428 8.12116 67.7926 7.89461C67.46 7.66805 67.0572 7.55477 66.5845 7.55477C66.1117 7.55477 65.709 7.66805 65.3763 7.89461C65.0611 8.12116 64.816 8.44357 64.6409 8.86183C64.4658 9.28008 64.3783 9.76805 64.3783 10.3257V10.378Z" fill="#15FF10"/>
<path d="M82.2051 18.8216C80.139 18.8216 78.4931 18.2639 77.2674 17.1486C76.0418 16.0332 75.4027 14.3776 75.3502 12.1817C75.3502 12.0598 75.3502 11.9029 75.3502 11.7112C75.3502 11.5195 75.3502 11.3714 75.3502 11.2668C75.4027 9.89004 75.7091 8.71369 76.2694 7.73776C76.8472 6.7444 77.6351 5.99502 78.6332 5.48963C79.6487 4.96681 80.8306 4.70539 82.1788 4.70539C83.7197 4.70539 84.9891 5.01037 85.9872 5.62033C87.0027 6.23029 87.7644 7.05809 88.2721 8.10374C88.7799 9.14938 89.0338 10.3432 89.0338 11.6851V12.3125C89.0338 12.5042 88.9638 12.661 88.8237 12.783C88.7011 12.905 88.5523 12.966 88.3772 12.966H79.9727C79.9727 12.9834 79.9727 13.0095 79.9727 13.0444C79.9727 13.0793 79.9727 13.1141 79.9727 13.149C79.9902 13.6544 80.0777 14.1162 80.2353 14.5344C80.3929 14.9527 80.638 15.2838 80.9707 15.5278C81.3034 15.7718 81.7061 15.8938 82.1788 15.8938C82.529 15.8938 82.8179 15.8415 83.0456 15.7369C83.2907 15.6149 83.4921 15.4842 83.6496 15.3448C83.8072 15.188 83.9298 15.0573 84.0173 14.9527C84.1749 14.7784 84.2975 14.6739 84.385 14.639C84.4901 14.5867 84.6477 14.5606 84.8578 14.5606H88.1146C88.2897 14.5606 88.4297 14.6129 88.5348 14.7174C88.6573 14.8046 88.7099 14.9353 88.6924 15.1095C88.6749 15.4058 88.526 15.7631 88.2459 16.1813C87.9657 16.5996 87.5543 17.0178 87.0115 17.4361C86.4862 17.8369 85.8208 18.1681 85.0154 18.4295C84.2099 18.6909 83.2732 18.8216 82.2051 18.8216ZM79.9727 10.378H84.4113V10.3257C84.4113 9.76805 84.3238 9.28008 84.1487 8.86183C83.9911 8.44357 83.7372 8.12116 83.387 7.89461C83.0543 7.66805 82.6516 7.55477 82.1788 7.55477C81.7061 7.55477 81.3034 7.66805 80.9707 7.89461C80.6555 8.12116 80.4104 8.44357 80.2353 8.86183C80.0602 9.28008 79.9727 9.76805 79.9727 10.3257V10.378Z" fill="#15FF10"/>
<path d="M92.1527 18.5602C91.9601 18.5602 91.8025 18.4992 91.6799 18.3772C91.5574 18.2552 91.4961 18.0983 91.4961 17.9066V5.62033C91.4961 5.42863 91.5574 5.27178 91.6799 5.14979C91.8025 5.0278 91.9601 4.96681 92.1527 4.96681H95.1731C95.3657 4.96681 95.5232 5.0278 95.6458 5.14979C95.7684 5.27178 95.8297 5.42863 95.8297 5.62033V6.61369C96.2849 6.07344 96.8802 5.62033 97.6156 5.25436C98.351 4.88838 99.2178 4.70539 100.216 4.70539C101.231 4.70539 102.124 4.93195 102.895 5.38506C103.683 5.83818 104.295 6.50913 104.733 7.39793C105.188 8.2693 105.416 9.34108 105.416 10.6133V17.9066C105.416 18.0983 105.346 18.2552 105.206 18.3772C105.083 18.4992 104.935 18.5602 104.759 18.5602H101.45C101.275 18.5602 101.118 18.4992 100.977 18.3772C100.855 18.2552 100.794 18.0983 100.794 17.9066V10.7701C100.794 9.95104 100.592 9.32365 100.19 8.88797C99.8043 8.43486 99.2265 8.2083 98.4561 8.2083C97.7382 8.2083 97.1604 8.43486 96.7226 8.88797C96.3024 9.32365 96.0923 9.95104 96.0923 10.7701V17.9066C96.0923 18.0983 96.0223 18.2552 95.8822 18.3772C95.7596 18.4992 95.6108 18.5602 95.4357 18.5602H92.1527Z" fill="white"/>
<path d="M113.968 18.8216C112.83 18.8216 111.858 18.6996 111.052 18.4556C110.265 18.1942 109.617 17.8805 109.109 17.5145C108.619 17.1486 108.251 16.7739 108.006 16.3905C107.761 15.9896 107.629 15.6498 107.612 15.371C107.594 15.1793 107.656 15.0224 107.796 14.9004C107.936 14.761 108.085 14.6913 108.242 14.6913H111.236C111.289 14.6913 111.333 14.7 111.368 14.7174C111.403 14.7349 111.455 14.7697 111.525 14.822C111.753 14.944 111.98 15.1008 112.208 15.2925C112.436 15.4668 112.698 15.6237 112.996 15.7631C113.294 15.9025 113.653 15.9722 114.073 15.9722C114.563 15.9722 114.975 15.8764 115.307 15.6846C115.64 15.4929 115.806 15.2054 115.806 14.822C115.806 14.5432 115.727 14.3166 115.57 14.1423C115.412 13.9506 115.088 13.7676 114.598 13.5934C114.125 13.4191 113.407 13.2448 112.444 13.0705C111.534 12.8614 110.737 12.5913 110.054 12.2602C109.372 11.9116 108.846 11.4672 108.479 10.927C108.111 10.3693 107.927 9.69834 107.927 8.91411C107.927 8.21701 108.155 7.54606 108.61 6.90125C109.065 6.25643 109.73 5.73361 110.606 5.33278C111.481 4.91452 112.558 4.70539 113.836 4.70539C114.852 4.70539 115.727 4.82739 116.463 5.07137C117.216 5.29793 117.846 5.59419 118.354 5.96017C118.879 6.32614 119.273 6.70083 119.536 7.08423C119.798 7.46764 119.938 7.81618 119.956 8.12988C119.974 8.30415 119.921 8.461 119.798 8.60042C119.676 8.72241 119.536 8.7834 119.378 8.7834H116.647C116.577 8.7834 116.507 8.77469 116.437 8.75726C116.367 8.72241 116.305 8.68755 116.253 8.6527C116.043 8.54813 115.833 8.40872 115.622 8.23444C115.412 8.06017 115.167 7.90332 114.887 7.7639C114.607 7.62448 114.257 7.55477 113.836 7.55477C113.364 7.55477 112.996 7.65934 112.733 7.86847C112.471 8.0776 112.339 8.34772 112.339 8.67884C112.339 8.9054 112.409 9.11452 112.549 9.30623C112.707 9.49793 113.013 9.6722 113.469 9.82905C113.941 9.98589 114.668 10.1602 115.649 10.3519C116.857 10.5436 117.82 10.8573 118.538 11.2929C119.256 11.7112 119.763 12.2079 120.061 12.783C120.359 13.3407 120.508 13.9332 120.508 14.5606C120.508 15.3971 120.254 16.1378 119.746 16.7826C119.256 17.4274 118.52 17.9328 117.54 18.2988C116.559 18.6473 115.369 18.8216 113.968 18.8216Z" fill="white"/>
<path d="M123.81 18.5602C123.617 18.5602 123.46 18.4992 123.337 18.3772C123.215 18.2552 123.153 18.0983 123.153 17.9066V0.914939C123.153 0.723237 123.215 0.56639 123.337 0.444399C123.46 0.322407 123.617 0.261411 123.81 0.261411H127.277C127.452 0.261411 127.601 0.322407 127.723 0.444399C127.863 0.56639 127.933 0.723237 127.933 0.914939V14.6129H135.865C136.058 14.6129 136.215 14.6826 136.338 14.822C136.478 14.944 136.548 15.1008 136.548 15.2925V17.9066C136.548 18.0983 136.478 18.2552 136.338 18.3772C136.215 18.4992 136.058 18.5602 135.865 18.5602H123.81Z" fill="white"/>
<path d="M142.633 18.8216C141.687 18.8216 140.838 18.6473 140.085 18.2988C139.35 17.9328 138.763 17.4448 138.326 16.8349C137.888 16.2249 137.669 15.5365 137.669 14.7697C137.669 13.5324 138.177 12.5564 139.192 11.8419C140.208 11.11 141.556 10.6133 143.237 10.3519L146.52 9.85519V9.48921C146.52 8.86183 146.389 8.38257 146.126 8.05145C145.863 7.72033 145.382 7.55477 144.682 7.55477C144.191 7.55477 143.789 7.65062 143.473 7.84232C143.176 8.03403 142.939 8.29544 142.764 8.62656C142.607 8.85311 142.388 8.96639 142.108 8.96639H139.166C138.973 8.96639 138.825 8.91411 138.72 8.80954C138.614 8.68755 138.571 8.54813 138.588 8.39129C138.588 8.0776 138.702 7.72033 138.93 7.3195C139.175 6.90125 139.542 6.4917 140.033 6.09087C140.523 5.69004 141.153 5.35892 141.924 5.09751C142.694 4.8361 143.622 4.70539 144.708 4.70539C145.846 4.70539 146.818 4.8361 147.623 5.09751C148.429 5.35892 149.076 5.7249 149.567 6.19544C150.074 6.66598 150.451 7.22365 150.696 7.86847C150.941 8.49585 151.064 9.19295 151.064 9.95975V17.9066C151.064 18.0983 150.994 18.2552 150.854 18.3772C150.731 18.4992 150.582 18.5602 150.407 18.5602H147.36C147.168 18.5602 147.01 18.4992 146.888 18.3772C146.765 18.2552 146.704 18.0983 146.704 17.9066V16.9917C146.476 17.3228 146.17 17.6278 145.785 17.9066C145.399 18.1855 144.944 18.4033 144.419 18.5602C143.911 18.7344 143.316 18.8216 142.633 18.8216ZM143.867 15.8415C144.375 15.8415 144.83 15.7369 145.233 15.5278C145.653 15.3012 145.977 14.9614 146.205 14.5083C146.45 14.0378 146.573 13.4539 146.573 12.7568V12.3909L144.34 12.783C143.517 12.9224 142.913 13.1403 142.528 13.4365C142.16 13.7154 141.976 14.0465 141.976 14.4299C141.976 14.7261 142.064 14.9788 142.239 15.188C142.414 15.3971 142.642 15.5627 142.922 15.6846C143.202 15.7892 143.517 15.8415 143.867 15.8415Z" fill="white"/>
<path d="M162.379 18.8216C161.399 18.8216 160.576 18.656 159.911 18.3249C159.263 17.9938 158.729 17.5755 158.309 17.0701V17.9066C158.309 18.0983 158.238 18.2552 158.098 18.3772C157.976 18.4992 157.827 18.5602 157.652 18.5602H154.684C154.491 18.5602 154.334 18.4992 154.211 18.3772C154.089 18.2552 154.027 18.0983 154.027 17.9066V0.653526C154.027 0.461826 154.089 0.30498 154.211 0.182988C154.334 0.0609961 154.491 0 154.684 0H157.888C158.081 0 158.238 0.0609961 158.361 0.182988C158.484 0.30498 158.545 0.461826 158.545 0.653526V6.24772C158.965 5.79461 159.49 5.42863 160.121 5.14979C160.769 4.85353 161.521 4.70539 162.379 4.70539C163.255 4.70539 164.025 4.85353 164.691 5.14979C165.374 5.42863 165.951 5.83818 166.424 6.37842C166.897 6.91867 167.265 7.56349 167.527 8.31286C167.79 9.06224 167.939 9.90747 167.974 10.8485C167.991 11.1797 168 11.4846 168 11.7635C168 12.0249 167.991 12.3299 167.974 12.6784C167.939 13.6544 167.781 14.5257 167.501 15.2925C167.238 16.0419 166.871 16.6867 166.398 17.227C165.925 17.7498 165.356 18.1506 164.691 18.4295C164.025 18.6909 163.255 18.8216 162.379 18.8216ZM160.961 15.3187C161.557 15.3187 162.021 15.1967 162.353 14.9527C162.686 14.7087 162.922 14.3776 163.062 13.9593C163.22 13.5411 163.316 13.0793 163.351 12.5739C163.386 12.0336 163.386 11.4934 163.351 10.9531C163.316 10.4477 163.22 9.98589 163.062 9.56764C162.922 9.14938 162.686 8.81826 162.353 8.57428C162.021 8.33029 161.557 8.2083 160.961 8.2083C160.418 8.2083 159.972 8.33029 159.622 8.57428C159.272 8.80083 159.009 9.10581 158.834 9.48921C158.659 9.85519 158.562 10.256 158.545 10.6917C158.527 11.0228 158.519 11.3452 158.519 11.6589C158.519 11.9726 158.527 12.3037 158.545 12.6523C158.562 13.1228 158.65 13.5585 158.808 13.9593C158.965 14.3602 159.219 14.6913 159.569 14.9527C159.919 15.1967 160.383 15.3187 160.961 15.3187Z" fill="white"/>
<path d="M61.3739 26.5219C61.0301 26.4574 60.7783 26.1573 60.7783 25.8092V22.3597C60.7783 21.8985 61.2067 21.5546 61.6607 21.6469C71.9547 23.7393 77.756 23.7161 86.8751 21.67C87.3337 21.5671 87.7721 21.9126 87.7721 22.3805V25.8212C87.7721 26.1639 87.5284 26.4609 87.1912 26.5306C77.6147 28.5122 71.7521 28.4701 61.3739 26.5219Z" fill="#15FF10"/>
</svg>
